<svg width="570" height="137" viewBox="0 0 570 137" fill="none" xmlns="http://www.w3.org/2000/svg">
<path d="M13.881 102.148C11.9381 102.148 10.4306 101.612 9.3587 100.542C8.35374 99.4716 7.85126 97.9329 7.85126 95.9259V36.2182C7.85126 34.1444 8.35374 32.5721 9.3587 31.5018C10.4306 30.3644 11.8041 29.7958 13.479 29.7958C15.02 29.7958 16.1589 30.0969 16.8959 30.699C17.6999 31.2342 18.6378 32.1707 19.7098 33.5088L58.1997 83.3822H55.5868V35.9171C55.5868 33.977 56.0893 32.4717 57.0942 31.4014C58.1661 30.3311 59.6736 29.7958 61.6165 29.7958C63.5595 29.7958 65.0334 30.3311 66.0384 31.4014C67.0433 32.4717 67.5458 33.977 67.5458 35.9171V96.1266C67.5458 97.9997 67.0769 99.4716 66.1388 100.542C65.2008 101.612 63.9279 102.148 62.32 102.148C60.779 102.148 59.5397 101.846 58.6017 101.244C57.7308 100.642 56.7592 99.6723 55.6873 98.3343L17.2979 48.4608H19.8103V95.9259C19.8103 97.9329 19.3078 99.4716 18.3028 100.542C17.2979 101.612 15.8239 102.148 13.881 102.148ZM86.7452 102.148C85.1373 102.148 83.8308 101.78 82.8259 101.044C81.8878 100.308 81.3184 99.3377 81.1174 98.1336C80.9165 96.8625 81.151 95.4576 81.8209 93.9189L108.352 35.2147C109.223 33.2745 110.261 31.9032 111.467 31.1004C112.74 30.2307 114.181 29.7958 115.789 29.7958C117.33 29.7958 118.703 30.2307 119.909 31.1004C121.182 31.9032 122.254 33.2745 123.125 35.2147L149.756 93.9189C150.493 95.4576 150.761 96.8625 150.56 98.1336C150.359 99.4046 149.79 100.408 148.852 101.144C147.914 101.813 146.674 102.148 145.133 102.148C143.257 102.148 141.783 101.713 140.711 100.843C139.707 99.9063 138.802 98.5014 137.998 96.6283L131.466 81.4756L136.893 84.9878H94.4834L99.9102 81.4756L93.4784 96.6283C92.6075 98.5685 91.7031 99.9734 90.765 100.843C89.827 101.713 88.4872 102.148 86.7452 102.148ZM115.588 44.5471L101.518 77.9634L98.9052 74.7522H132.471L129.958 77.9634L115.789 44.5471H115.588ZM170.472 102.148C168.396 102.148 166.754 101.579 165.548 100.442C164.409 99.2374 163.84 97.5315 163.84 95.3238V37.4224C163.84 35.2147 164.409 33.5423 165.548 32.4049C166.754 31.2007 168.462 30.5986 170.673 30.5986H205.746C207.489 30.5986 208.794 31.0335 209.665 31.9032C210.537 32.7728 210.973 34.0105 210.973 35.6161C210.973 37.2885 210.537 38.593 209.665 39.5297C208.794 40.3993 207.489 40.8342 205.746 40.8342H176.703V60.8037H203.636C205.312 60.8037 206.584 61.2386 207.455 62.1082C208.393 62.9779 208.863 64.2156 208.863 65.8212C208.863 67.4936 208.393 68.7981 207.455 69.7348C206.584 70.6044 205.312 71.0393 203.636 71.0393H176.703V95.3238C176.703 99.873 174.626 102.148 170.472 102.148ZM229.818 101.345C227.741 101.345 226.133 100.776 224.993 99.6388C223.855 98.4346 223.285 96.7955 223.285 94.7217V36.8203C223.285 34.6794 223.821 33.0738 224.893 32.0035C226.031 30.8662 227.641 30.2976 229.717 30.2976C231.794 30.2976 233.368 30.8662 234.44 32.0035C235.578 33.0738 236.15 34.6794 236.15 36.8203V90.4067H265.293C267.101 90.4067 268.475 90.8749 269.413 91.8116C270.418 92.7482 270.921 94.0861 270.921 95.8255C270.921 97.565 270.418 98.9363 269.413 99.9398C268.475 100.876 267.101 101.345 265.293 101.345H229.818Z" fill="#FBA58F"/>
<path d="M398.549 102.148C396.739 102.148 395.265 101.713 394.126 100.843C393.055 99.9733 392.183 98.6018 391.514 96.7287L370.51 37.4224C369.772 35.2815 369.907 33.4752 370.912 32.0035C371.984 30.5318 373.758 29.7958 376.237 29.7958C378.047 29.7958 379.454 30.2307 380.459 31.1004C381.464 31.9032 382.267 33.2077 382.87 35.014L400.959 88.6004H396.939L415.833 35.1143C416.502 33.308 417.341 31.97 418.346 31.1004C419.35 30.2307 420.658 29.7958 422.265 29.7958C423.873 29.7958 425.147 30.2307 426.083 31.1004C427.021 31.97 427.826 33.3416 428.495 35.2147L446.787 88.6004H443.269L461.659 35.014C462.261 33.2745 463.066 31.97 464.071 31.1004C465.076 30.2307 466.45 29.7958 468.191 29.7958C470.334 29.7958 471.911 30.5318 472.916 32.0035C473.92 33.4752 474.054 35.2815 473.316 37.4224L452.112 96.829C451.442 98.6353 450.571 99.9733 449.499 100.843C448.428 101.713 446.987 102.148 445.177 102.148C443.369 102.148 441.929 101.713 440.857 100.843C439.785 99.9733 438.914 98.6018 438.244 96.7287L420.758 46.9555H423.068L405.381 96.829C404.712 98.6353 403.84 99.9733 402.769 100.843C401.764 101.713 400.356 102.148 398.549 102.148ZM511.665 102.348C508.717 102.348 505.769 102.114 502.821 101.646C499.873 101.244 497.093 100.609 494.479 99.7391C491.866 98.8025 489.523 97.6653 487.444 96.3273C486.239 95.5245 485.401 94.5545 484.932 93.4171C484.463 92.2798 484.296 91.1759 484.429 90.1056C484.632 88.9683 485.067 87.9983 485.737 87.1955C486.473 86.3259 487.378 85.7906 488.449 85.5899C489.523 85.3892 490.695 85.6903 491.967 86.493C494.915 88.2325 498.03 89.5035 501.313 90.3063C504.597 91.1091 508.046 91.5105 511.665 91.5105C516.957 91.5105 520.81 90.6409 523.222 88.9014C525.633 87.0951 526.84 84.7871 526.84 81.9773C526.84 79.6358 525.968 77.7962 524.227 76.4581C522.551 75.1201 519.636 74.0162 515.483 73.1466L504.428 70.8386C498.065 69.5005 493.307 67.2595 490.159 64.1152C487.077 60.904 485.536 56.6894 485.536 51.4712C485.536 48.1932 486.206 45.2161 487.546 42.5402C488.885 39.8642 490.761 37.5562 493.174 35.6161C495.653 33.6759 498.567 32.2042 501.916 31.2007C505.333 30.1304 509.084 29.5951 513.173 29.5951C517.193 29.5951 521.01 30.0969 524.628 31.1004C528.247 32.1038 531.496 33.5756 534.377 35.5157C535.449 36.2517 536.151 37.1548 536.487 38.2251C536.889 39.2955 536.99 40.366 536.789 41.4363C536.587 42.4398 536.118 43.3094 535.382 44.0454C534.644 44.7813 533.706 45.2161 532.567 45.3499C531.496 45.4838 530.257 45.1492 528.85 44.3464C526.371 42.9416 523.858 41.9381 521.313 41.336C518.767 40.7339 516.019 40.4328 513.071 40.4328C509.989 40.4328 507.343 40.8677 505.133 41.7374C502.921 42.607 501.213 43.8447 500.006 45.4503C498.868 46.989 498.299 48.8286 498.299 50.9695C498.299 53.3779 499.103 55.318 500.711 56.7897C502.318 58.1946 505.064 59.2984 508.951 60.1012L519.905 62.4093C526.538 63.8142 531.462 66.0218 534.677 69.0323C537.961 72.0428 539.602 76.0567 539.602 81.0742C539.602 84.2854 538.933 87.1955 537.592 89.8046C536.32 92.4136 534.444 94.6548 531.965 96.528C529.552 98.4011 526.638 99.8395 523.222 100.843C519.805 101.846 515.952 102.348 511.665 102.348ZM557.501 101.846C555.222 101.846 553.379 101.144 551.974 99.7391C550.633 98.3342 549.964 96.5279 549.964 94.3203C549.964 92.1794 550.633 90.4402 551.974 89.1021C553.379 87.6972 555.222 86.9948 557.501 86.9948C559.844 86.9948 561.654 87.6972 562.926 89.1021C564.267 90.4402 564.936 92.1794 564.936 94.3203C564.936 96.5279 564.267 98.3342 562.926 99.7391C561.654 101.144 559.844 101.846 557.501 101.846Z" fill="#FBA58F"/>
<mask id="mask0_2_24" style="mask-type:luminance" maskUnits="userSpaceOnUse" x="279" y="22" width="79" height="80">
<path d="M357.624 22.9313H279.112V101.329H357.624V22.9313Z" fill="white"/>
</mask>
<g mask="url(#mask0_2_24)">
<mask id="mask1_2_24" style="mask-type:luminance" maskUnits="userSpaceOnUse" x="279" y="22" width="79" height="80">
<path d="M357.624 62.1302C357.624 40.4812 340.049 22.9313 318.368 22.9313C296.687 22.9313 279.112 40.4812 279.112 62.1302C279.112 83.7791 296.687 101.329 318.368 101.329C340.049 101.329 357.624 83.7791 357.624 62.1302Z" fill="white"/>
</mask>
<g mask="url(#mask1_2_24)">
<path d="M286.248 101.329C282.307 101.329 279.112 98.1381 279.112 94.2021V62.1302V30.0585C279.112 26.1223 282.307 22.9313 286.248 22.9313H318.368C340.049 22.9313 357.624 40.4812 357.624 62.1302C357.624 83.7791 340.049 101.329 318.368 101.329H286.248Z" fill="#FBA58F"/>
<path d="M294.2 101.329C290.378 101.329 289.142 96.2016 292.541 94.4634C318.939 80.967 318.939 43.2934 292.541 29.797C289.142 28.0587 290.378 22.9313 294.2 22.9313H318.368C340.049 22.9313 357.624 40.4812 357.624 62.1302C357.624 83.7791 340.049 101.329 318.368 101.329H294.2Z" fill="#D38875"/>
<path d="M326.035 62.1302C321.801 62.1302 318.368 58.7025 318.368 54.4743C318.368 50.2459 321.801 46.8181 326.035 46.8181C330.27 46.8181 333.701 50.2459 333.701 54.4743C333.701 58.7025 330.27 62.1302 326.035 62.1302Z" fill="#FBA58F"/>
</g>
</g>
</svg>