<svg width="242" height="300" viewBox="0 0 242 300" fill="none" xmlns="http://www.w3.org/2000/svg">
<path d="M99.0679 168.032L115.531 167.744C127.955 167.528 138.203 177.424 138.42 189.848V189.848C138.637 202.273 128.74 212.521 116.316 212.738L99.8532 213.025L99.0679 168.032Z" fill="#F28B00"/>
<path d="M186.068 23.4318C82.0679 20.4318 71.7697 31.3179 44.0669 61.4318C32.5678 73.9318 -4.43232 146.432 60.0676 182.432C61.635 183.307 70.0679 190.432 101.234 190.432" stroke="url(#paint0_linear_23_39)" stroke-width="45"/>
<path d="M172.237 0.631836L188.7 0.919194C201.124 1.13606 211.02 11.3839 210.803 23.8084V23.8084C210.587 36.233 200.339 46.1292 187.914 45.9123L171.451 45.625L172.237 0.631836Z" fill="#E61169"/>
<path d="M142.833 131.626L126.37 131.913C113.945 132.13 103.697 122.234 103.481 109.809V109.809C103.264 97.3849 113.16 87.1371 125.584 86.9202L142.047 86.6328L142.833 131.626Z" fill="#F28B00"/>
<path d="M55.8327 276.226C159.832 279.226 170.131 268.34 197.833 238.226C209.333 225.726 246.333 153.226 181.833 117.226C180.265 116.351 171.832 109.226 140.666 109.226" stroke="url(#paint1_linear_23_39)" stroke-width="45"/>
<path d="M69.6636 299.026L53.2009 298.739C40.7764 298.522 30.8801 288.274 31.097 275.849V275.849C31.3138 263.425 41.5617 253.529 53.9862 253.745L70.4489 254.033L69.6636 299.026Z" fill="#E61169"/>
<defs>
<linearGradient id="paint0_linear_23_39" x1="160.968" y1="20.6743" x2="160.968" y2="120.129" gradientUnits="userSpaceOnUse">
<stop stop-color="#E61169"/>
<stop offset="1" stop-color="#F28B00"/>
</linearGradient>
<linearGradient id="paint1_linear_23_39" x1="80.9324" y1="278.983" x2="80.9324" y2="179.529" gradientUnits="userSpaceOnUse">
<stop stop-color="#E61169"/>
<stop offset="0.0001" stop-color="#E71A61"/>
<stop offset="1" stop-color="#F28B00"/>
</linearGradient>
</defs>
</svg>
