<svg width="1024" height="512" viewBox="0 0 1024 512" fill="none" xmlns="http://www.w3.org/2000/svg"><g clip-path="url(#clip0_2_9)"><rect x="35" y="22" width="75" height="185" rx="37.5" fill="#E61169"/><rect x="35" y="282" width="75" height="75" rx="37.5" fill="#F28507"/><rect x="185" y="22" width="185" height="75" rx="37.5" fill="#F28507"/><rect x="994" y="454" width="75" height="185" rx="37.5" transform="rotate(180 994 454)" fill="#F28507"/><rect x="994" y="194" width="75" height="75" rx="37.5" transform="rotate(180 994 194)" fill="#E61169"/><rect x="844" y="454" width="185" height="75" rx="37.5" transform="rotate(180 844 454)" fill="#E61169"/><path d="M433.752 333.024C431.704 333.024 430.04 332.555 428.76 331.616C427.565 330.677 426.84 329.44 426.584 327.904C426.328 326.283 426.627 324.491 427.48 322.528L461.272 247.648C462.381 245.173 463.704 243.424 465.24 242.4C466.861 241.291 468.696 240.736 470.744 240.736C472.707 240.736 474.456 241.291 475.992 242.4C477.613 243.424 478.979 245.173 480.088 247.648L514.008 322.528C514.947 324.491 515.288 326.283 515.032 327.904C514.776 329.525 514.051 330.805 512.856 331.744C511.661 332.597 510.083 333.024 508.12 333.024C505.731 333.024 503.853 332.469 502.488 331.36C501.208 330.165 500.056 328.373 499.032 325.984L490.712 306.656L497.624 311.136H443.608L450.52 306.656L442.328 325.984C441.219 328.459 440.067 330.251 438.872 331.36C437.677 332.469 435.971 333.024 433.752 333.024ZM470.488 259.552L452.568 302.176L449.24 298.08H491.992L488.792 302.176L470.744 259.552H470.488ZM536.426 332C533.781 332 531.733 331.275 530.282 329.824C528.831 328.288 528.106 326.197 528.106 323.552V249.696C528.106 246.965 528.789 244.917 530.154 243.552C531.605 242.101 533.653 241.376 536.298 241.376C538.943 241.376 540.949 242.101 542.314 243.552C543.765 244.917 544.49 246.965 544.49 249.696V318.048H581.61C583.914 318.048 585.663 318.645 586.858 319.84C588.138 321.035 588.778 322.741 588.778 324.96C588.778 327.179 588.138 328.928 586.858 330.208C585.663 331.403 583.914 332 581.61 332H536.426ZM638.498 333.28C628.514 333.28 620.066 331.403 613.154 327.648C606.327 323.893 601.122 318.56 597.538 311.648C593.954 304.736 592.162 296.544 592.162 287.072C592.162 279.904 593.186 273.461 595.234 267.744C597.367 262.027 600.397 257.163 604.322 253.152C608.333 249.056 613.197 245.941 618.914 243.808C624.631 241.589 631.117 240.48 638.37 240.48C643.149 240.48 647.927 241.077 652.706 242.272C657.57 243.381 662.135 245.301 666.402 248.032C667.853 248.971 668.791 250.123 669.218 251.488C669.73 252.853 669.815 254.261 669.474 255.712C669.133 257.077 668.493 258.272 667.554 259.296C666.615 260.32 665.421 260.96 663.97 261.216C662.605 261.472 661.069 261.131 659.362 260.192C656.119 258.315 652.834 256.949 649.506 256.096C646.178 255.243 642.466 254.816 638.37 254.816C632.055 254.816 626.722 256.096 622.37 258.656C618.018 261.131 614.733 264.757 612.514 269.536C610.381 274.315 609.314 280.16 609.314 287.072C609.314 297.568 611.831 305.547 616.866 311.008C621.901 316.469 629.367 319.2 639.266 319.2C642.679 319.2 646.135 318.859 649.634 318.176C653.133 317.493 656.546 316.555 659.874 315.36L656.674 322.656V295.392H642.594C640.461 295.392 638.797 294.837 637.602 293.728C636.493 292.619 635.938 291.125 635.938 289.248C635.938 287.285 636.493 285.792 637.602 284.768C638.797 283.744 640.461 283.232 642.594 283.232H663.714C665.847 283.232 667.469 283.829 668.578 285.024C669.773 286.133 670.37 287.755 670.37 289.888V320.992C670.37 322.869 669.986 324.448 669.218 325.728C668.535 327.008 667.383 327.947 665.762 328.544C662.007 329.909 657.698 331.061 652.834 332C647.97 332.853 643.191 333.28 638.498 333.28ZM726.86 333.28C720.631 333.28 715.127 332.469 710.348 330.848C705.655 329.227 701.687 326.837 698.444 323.68C695.201 320.437 692.769 316.427 691.148 311.648C689.527 306.869 688.716 301.323 688.716 295.008V249.056C688.716 246.24 689.399 244.149 690.764 242.784C692.215 241.419 694.263 240.736 696.908 240.736C699.553 240.736 701.559 241.419 702.924 242.784C704.375 244.149 705.1 246.24 705.1 249.056V294.88C705.1 302.987 706.935 309.088 710.604 313.184C714.359 317.195 719.777 319.2 726.86 319.2C733.943 319.2 739.319 317.195 742.988 313.184C746.657 309.088 748.492 302.987 748.492 294.88V249.056C748.492 246.24 749.175 244.149 750.54 242.784C751.991 241.419 754.039 240.736 756.684 240.736C759.244 240.736 761.207 241.419 762.572 242.784C764.023 244.149 764.748 246.24 764.748 249.056V295.008C764.748 303.371 763.297 310.411 760.396 316.128C757.58 321.845 753.356 326.155 747.724 329.056C742.092 331.872 735.137 333.28 726.86 333.28ZM814.96 333.28C811.205 333.28 807.451 332.981 803.696 332.384C799.941 331.872 796.4 331.061 793.072 329.952C789.744 328.757 786.757 327.307 784.112 325.6C782.576 324.576 781.509 323.339 780.912 321.888C780.315 320.437 780.101 319.029 780.272 317.664C780.528 316.213 781.083 314.976 781.936 313.952C782.875 312.843 784.027 312.16 785.392 311.904C786.757 311.648 788.251 312.032 789.872 313.056C793.627 315.275 797.595 316.896 801.776 317.92C805.957 318.944 810.352 319.456 814.96 319.456C821.701 319.456 826.608 318.347 829.68 316.128C832.752 313.824 834.288 310.88 834.288 307.296C834.288 304.309 833.179 301.963 830.96 300.256C828.827 298.549 825.115 297.141 819.824 296.032L805.744 293.088C797.637 291.381 791.579 288.523 787.568 284.512C783.643 280.416 781.68 275.04 781.68 268.384C781.68 264.203 782.533 260.405 784.24 256.992C785.947 253.579 788.336 250.635 791.408 248.16C794.565 245.685 798.277 243.808 802.544 242.528C806.896 241.163 811.675 240.48 816.88 240.48C822 240.48 826.864 241.12 831.472 242.4C836.08 243.68 840.219 245.557 843.888 248.032C845.253 248.971 846.149 250.123 846.576 251.488C847.088 252.853 847.216 254.219 846.96 255.584C846.704 256.864 846.107 257.973 845.168 258.912C844.229 259.851 843.035 260.405 841.584 260.576C840.219 260.747 838.64 260.32 836.848 259.296C833.691 257.504 830.491 256.224 827.248 255.456C824.005 254.688 820.507 254.304 816.752 254.304C812.827 254.304 809.456 254.859 806.64 255.968C803.824 257.077 801.648 258.656 800.112 260.704C798.661 262.667 797.936 265.013 797.936 267.744C797.936 270.816 798.96 273.291 801.008 275.168C803.056 276.96 806.555 278.368 811.504 279.392L825.456 282.336C833.904 284.128 840.176 286.944 844.272 290.784C848.453 294.624 850.544 299.744 850.544 306.144C850.544 310.24 849.691 313.952 847.984 317.28C846.363 320.608 843.973 323.467 840.816 325.856C837.744 328.245 834.032 330.08 829.68 331.36C825.328 332.64 820.421 333.28 814.96 333.28Z" fill="url(#paint0_linear_2_9)"/><path d="M185.752 230.024C183.704 230.024 182.04 229.555 180.76 228.616C179.565 227.677 178.84 226.44 178.584 224.904C178.328 223.283 178.627 221.491 179.48 219.528L213.272 144.648C214.381 142.173 215.704 140.424 217.24 139.4C218.861 138.291 220.696 137.736 222.744 137.736C224.707 137.736 226.456 138.291 227.992 139.4C229.613 140.424 230.979 142.173 232.088 144.648L266.008 219.528C266.947 221.491 267.288 223.283 267.032 224.904C266.776 226.525 266.051 227.805 264.856 228.744C263.661 229.597 262.083 230.024 260.12 230.024C257.731 230.024 255.853 229.469 254.488 228.36C253.208 227.165 252.056 225.373 251.032 222.984L242.712 203.656L249.624 208.136H195.608L202.52 203.656L194.328 222.984C193.219 225.459 192.067 227.251 190.872 228.36C189.677 229.469 187.971 230.024 185.752 230.024ZM222.488 156.552L204.568 199.176L201.24 195.08H243.992L240.792 199.176L222.744 156.552H222.488ZM288.426 229C285.781 229 283.733 228.275 282.282 226.824C280.831 225.288 280.106 223.197 280.106 220.552V146.696C280.106 143.965 280.789 141.917 282.154 140.552C283.605 139.101 285.653 138.376 288.298 138.376C290.943 138.376 292.949 139.101 294.314 140.552C295.765 141.917 296.49 143.965 296.49 146.696V215.048H333.61C335.914 215.048 337.663 215.645 338.858 216.84C340.138 218.035 340.778 219.741 340.778 221.96C340.778 224.179 340.138 225.928 338.858 227.208C337.663 228.403 335.914 229 333.61 229H288.426ZM360.685 229C357.869 229 355.693 228.275 354.157 226.824C352.706 225.288 351.981 223.112 351.981 220.296V147.464C351.981 144.648 352.706 142.515 354.157 141.064C355.693 139.528 357.869 138.76 360.685 138.76H391.405C397.72 138.76 403.096 139.699 407.533 141.576C411.97 143.453 415.341 146.141 417.645 149.64C420.034 153.139 421.229 157.32 421.229 162.184C421.229 167.645 419.65 172.253 416.493 176.008C413.336 179.763 409.026 182.28 403.565 183.56V181.64C409.88 182.579 414.786 184.968 418.285 188.808C421.784 192.648 423.533 197.64 423.533 203.784C423.533 211.805 420.802 218.035 415.341 222.472C409.965 226.824 402.456 229 392.813 229H360.685ZM367.725 216.584H390.765C396.568 216.584 400.834 215.475 403.565 213.256C406.296 210.952 407.661 207.539 407.661 203.016C407.661 198.408 406.296 194.995 403.565 192.776C400.834 190.557 396.568 189.448 390.765 189.448H367.725V216.584ZM367.725 177.032H388.589C394.221 177.032 398.402 175.965 401.133 173.832C403.949 171.613 405.357 168.371 405.357 164.104C405.357 159.837 403.949 156.637 401.133 154.504C398.402 152.285 394.221 151.176 388.589 151.176H367.725V177.032ZM477.61 230.28C471.381 230.28 465.877 229.469 461.098 227.848C456.405 226.227 452.437 223.837 449.194 220.68C445.951 217.437 443.519 213.427 441.898 208.648C440.277 203.869 439.466 198.323 439.466 192.008V146.056C439.466 143.24 440.149 141.149 441.514 139.784C442.965 138.419 445.013 137.736 447.658 137.736C450.303 137.736 452.309 138.419 453.674 139.784C455.125 141.149 455.85 143.24 455.85 146.056V191.88C455.85 199.987 457.685 206.088 461.354 210.184C465.109 214.195 470.527 216.2 477.61 216.2C484.693 216.2 490.069 214.195 493.738 210.184C497.407 206.088 499.242 199.987 499.242 191.88V146.056C499.242 143.24 499.925 141.149 501.29 139.784C502.741 138.419 504.789 137.736 507.434 137.736C509.994 137.736 511.957 138.419 513.322 139.784C514.773 141.149 515.498 143.24 515.498 146.056V192.008C515.498 200.371 514.047 207.411 511.146 213.128C508.33 218.845 504.106 223.155 498.474 226.056C492.842 228.872 485.887 230.28 477.61 230.28ZM565.71 230.28C561.955 230.28 558.201 229.981 554.446 229.384C550.691 228.872 547.15 228.061 543.822 226.952C540.494 225.757 537.507 224.307 534.862 222.6C533.326 221.576 532.259 220.339 531.662 218.888C531.065 217.437 530.851 216.029 531.022 214.664C531.278 213.213 531.833 211.976 532.686 210.952C533.625 209.843 534.777 209.16 536.142 208.904C537.507 208.648 539.001 209.032 540.622 210.056C544.377 212.275 548.345 213.896 552.526 214.92C556.707 215.944 561.102 216.456 565.71 216.456C572.451 216.456 577.358 215.347 580.43 213.128C583.502 210.824 585.038 207.88 585.038 204.296C585.038 201.309 583.929 198.963 581.71 197.256C579.577 195.549 575.865 194.141 570.574 193.032L556.494 190.088C548.387 188.381 542.329 185.523 538.318 181.512C534.393 177.416 532.43 172.04 532.43 165.384C532.43 161.203 533.283 157.405 534.99 153.992C536.697 150.579 539.086 147.635 542.158 145.16C545.315 142.685 549.027 140.808 553.294 139.528C557.646 138.163 562.425 137.48 567.63 137.48C572.75 137.48 577.614 138.12 582.222 139.4C586.83 140.68 590.969 142.557 594.638 145.032C596.003 145.971 596.899 147.123 597.326 148.488C597.838 149.853 597.966 151.219 597.71 152.584C597.454 153.864 596.857 154.973 595.918 155.912C594.979 156.851 593.785 157.405 592.334 157.576C590.969 157.747 589.39 157.32 587.598 156.296C584.441 154.504 581.241 153.224 577.998 152.456C574.755 151.688 571.257 151.304 567.502 151.304C563.577 151.304 560.206 151.859 557.39 152.968C554.574 154.077 552.398 155.656 550.862 157.704C549.411 159.667 548.686 162.013 548.686 164.744C548.686 167.816 549.71 170.291 551.758 172.168C553.806 173.96 557.305 175.368 562.254 176.392L576.206 179.336C584.654 181.128 590.926 183.944 595.022 187.784C599.203 191.624 601.294 196.744 601.294 203.144C601.294 207.24 600.441 210.952 598.734 214.28C597.113 217.608 594.723 220.467 591.566 222.856C588.494 225.245 584.782 227.08 580.43 228.36C576.078 229.64 571.171 230.28 565.71 230.28Z" fill="url(#paint1_linear_2_9)"/></g><defs><linearGradient id="paint0_linear_2_9" x1="706" y1="275" x2="429" y2="202" gradientUnits="userSpaceOnUse"><stop stop-color="#F28507"/><stop offset="1" stop-color="#E61169"/></linearGradient><linearGradient id="paint1_linear_2_9" x1="175" y1="99" x2="905" y2="274" gradientUnits="userSpaceOnUse"><stop stop-color="#E61169"/><stop offset="1" stop-color="#F28507"/></linearGradient><clipPath id="clip0_2_9"><rect width="1024" height="512" fill="white"/></clipPath></defs></svg>