<svg width="512" height="512" version="1.1" xmlns="http://www.w3.org/2000/svg" desc="Created with imagetracer.js version 1.2.6" ><path fill="rgb(0,0,0)" stroke="rgb(0,0,0)" stroke-width="1" opacity="1" d="M 0 0 L 512 0 L 512 512 L 0 512 L 0 0 Z M 251 106 L 250 107 L 240 107 L 239 108 L 228 109 L 206 116 Q 182 126 165 143 Q 148 159 137 181 L 129 201 L 124 226 L 124 253 L 128 274 L 133 289 Q 144 315 163 333 L 119 378 L 136 393 L 256 273 L 380 397 L 400 378 L 353 330 Q 368 315 377 296 L 384 278 L 389 254 L 389 225 L 387 218 L 387 213 L 381 192 Q 371 167 354 149 Q 334 127 306 115 L 282 108 L 264 107 L 263 106 L 251 106 Z " /><path fill="rgb(141,30,30)" stroke="rgb(141,30,30)" stroke-width="1" opacity="1" d="M 250.5 106 L 263 106.5 L 250.5 107 L 250.5 106 Z " /><path fill="rgb(141,30,30)" stroke="rgb(141,30,30)" stroke-width="1" opacity="1" d="M 239.5 107 L 243 107.5 L 239.5 108 L 239.5 107 Z " /><path fill="rgb(141,30,30)" stroke="rgb(141,30,30)" stroke-width="1" opacity="1" d="M 270.5 107 L 274 107.5 L 270.5 108 L 270.5 107 Z " /><path fill="rgb(141,30,30)" stroke="rgb(141,30,30)" stroke-width="1" opacity="1" d="M 232.5 108 L 235 108.5 L 232.5 109 L 232.5 108 Z " /><path fill="rgb(141,30,30)" stroke="rgb(141,30,30)" stroke-width="1" opacity="1" d="M 278.5 108 L 282 108.5 L 278.5 109 L 278.5 108 Z " /><path fill="rgb(141,30,30)" stroke="rgb(141,30,30)" stroke-width="1" opacity="1" d="M 320.5 122 L 321.5 124 L 320.5 122 Z " /><path fill="rgb(141,30,30)" stroke="rgb(141,30,30)" stroke-width="1" opacity="1" d="M 189.5 124 L 188.5 126 L 189.5 124 Z " /><path fill="rgb(141,30,30)" stroke="rgb(141,30,30)" stroke-width="1" opacity="1" d="M 184.5 127 L 183.5 129 L 184.5 127 Z " /><path fill="rgb(141,30,30)" stroke="rgb(141,30,30)" stroke-width="1" opacity="1" d="M 181.5 129 L 180.5 131 L 181.5 129 Z " /><path fill="rgb(141,30,30)" stroke="rgb(141,30,30)" stroke-width="1" opacity="1" d="M 331.5 129 L 332.5 131 L 331.5 129 Z " /><path fill="rgb(141,30,30)" stroke="rgb(141,30,30)" stroke-width="1" opacity="1" d="M 177.5 132 L 176.5 134 L 177.5 132 Z " /><path fill="rgb(141,30,30)" stroke="rgb(141,30,30)" stroke-width="1" opacity="1" d="M 335.5 132 L 336.5 134 L 335.5 132 Z " /><path fill="rgb(141,30,30)" stroke="rgb(141,30,30)" stroke-width="1" opacity="1" d="M 338.5 134 L 340.5 137 L 338.5 134 Z " /><path fill="rgb(141,30,30)" stroke="rgb(141,30,30)" stroke-width="1" opacity="1" d="M 173.5 135 L 171.5 138 L 173.5 135 Z " /><path fill="rgb(141,30,30)" stroke="rgb(141,30,30)" stroke-width="1" opacity="1" d="M 346.5 141 L 353.5 149 L 346.5 141 Z " /><path fill="rgb(141,30,30)" stroke="rgb(141,30,30)" stroke-width="1" opacity="1" d="M 164.5 143 L 160.5 148 L 164.5 143 Z " /><path fill="rgb(141,30,30)" stroke="rgb(141,30,30)" stroke-width="1" opacity="1" d="M 154.5 154 L 152.5 157 L 154.5 154 Z " /><path fill="rgb(141,30,30)" stroke="rgb(141,30,30)" stroke-width="1" opacity="1" d="M 359.5 155 L 360.5 157 L 359.5 155 Z " /><path fill="rgb(141,30,30)" stroke="rgb(141,30,30)" stroke-width="1" opacity="1" d="M 151.5 158 L 150.5 160 L 151.5 158 Z " /><path fill="rgb(141,30,30)" stroke="rgb(141,30,30)" stroke-width="1" opacity="1" d="M 362.5 159 L 363.5 161 L 362.5 159 Z " /><path fill="rgb(141,30,30)" stroke="rgb(141,30,30)" stroke-width="1" opacity="1" d="M 148.5 162 L 147.5 164 L 148.5 162 Z " /><path fill="rgb(141,30,30)" stroke="rgb(141,30,30)" stroke-width="1" opacity="1" d="M 364.5 162 L 365.5 164 L 364.5 162 Z " /><path fill="rgb(141,30,30)" stroke="rgb(141,30,30)" stroke-width="1" opacity="1" d="M 146.5 165 L 145.5 167 L 146.5 165 Z " /><path fill="rgb(141,30,30)" stroke="rgb(141,30,30)" stroke-width="1" opacity="1" d="M 368.5 168 L 369.5 170 L 368.5 168 Z " /><path fill="rgb(141,30,30)" stroke="rgb(141,30,30)" stroke-width="1" opacity="1" d="M 371.5 173 L 372.5 175 L 371.5 173 Z " /><path fill="rgb(141,30,30)" stroke="rgb(141,30,30)" stroke-width="1" opacity="1" d="M 126.5 212 L 127 214.5 L 126 214.5 L 126.5 212 Z " /><path fill="rgb(141,30,30)" stroke="rgb(141,30,30)" stroke-width="1" opacity="1" d="M 125.5 218 L 126 221.5 L 125 221.5 L 125.5 218 Z " /><path fill="rgb(141,30,30)" stroke="rgb(141,30,30)" stroke-width="1" opacity="1" d="M 387.5 218 L 388 220.5 L 387 220.5 L 387.5 218 Z " /><path fill="rgb(141,30,30)" stroke="rgb(141,30,30)" stroke-width="1" opacity="1" d="M 388.5 224 L 389 230.5 L 388 230.5 L 388.5 224 Z " /><path fill="rgb(141,30,30)" stroke="rgb(141,30,30)" stroke-width="1" opacity="1" d="M 124.5 225 L 125 233.5 L 124 233.5 L 124.5 225 Z " /><path fill="rgb(141,30,30)" stroke="rgb(141,30,30)" stroke-width="1" opacity="1" d="M 124.5 244 L 125 252.5 L 124 252.5 L 124.5 244 Z " /><path fill="rgb(141,30,30)" stroke="rgb(141,30,30)" stroke-width="1" opacity="1" d="M 388.5 246 L 389 253.5 L 388 253.5 L 388.5 246 Z " /><path fill="rgb(141,30,30)" stroke="rgb(141,30,30)" stroke-width="1" opacity="1" d="M 125.5 256 L 126 258.5 L 125 258.5 L 125.5 256 Z " /><path fill="rgb(141,30,30)" stroke="rgb(141,30,30)" stroke-width="1" opacity="1" d="M 387.5 257 L 388 259.5 L 387 259.5 L 387.5 257 Z " /><path fill="rgb(141,30,30)" stroke="rgb(141,30,30)" stroke-width="1" opacity="1" d="M 126.5 263 L 127 265.5 L 126 265.5 L 126.5 263 Z " /><path fill="rgb(141,30,30)" stroke="rgb(141,30,30)" stroke-width="1" opacity="1" d="M 372.5 303 L 371.5 305 L 372.5 303 Z " /><path fill="rgb(141,30,30)" stroke="rgb(141,30,30)" stroke-width="1" opacity="1" d="M 142.5 306 L 143.5 308 L 142.5 306 Z " /><path fill="rgb(141,30,30)" stroke="rgb(141,30,30)" stroke-width="1" opacity="1" d="M 367.5 311 L 366.5 313 L 367.5 311 Z " /><path fill="rgb(141,30,30)" stroke="rgb(141,30,30)" stroke-width="1" opacity="1" d="M 365.5 314 L 363.5 317 L 365.5 314 Z " /><path fill="rgb(141,30,30)" stroke="rgb(141,30,30)" stroke-width="1" opacity="1" d="M 148.5 315 L 149.5 317 L 148.5 315 Z " /><path fill="rgb(141,30,30)" stroke="rgb(141,30,30)" stroke-width="1" opacity="1" d="M 362.5 318 L 361.5 320 L 362.5 318 Z " /><path fill="rgb(141,30,30)" stroke="rgb(141,30,30)" stroke-width="1" opacity="1" d="M 151.5 319 L 152.5 321 L 151.5 319 Z " /><path fill="rgb(141,30,30)" stroke="rgb(141,30,30)" stroke-width="1" opacity="1" d="M 359.5 322 L 355.5 327 L 359.5 322 Z " /><path fill="rgb(141,30,30)" stroke="rgb(141,30,30)" stroke-width="1" opacity="1" d="M 154.5 323 L 158.5 328 L 154.5 323 Z " /><path fill="rgb(183,40,40)" stroke="rgb(183,40,40)" stroke-width="1" opacity="1" d="M 243.5 107 L 269.5 107 Q 271.3 109.8 277.5 108 L 295.5 112 L 306.5 116 Q 338.7 129.3 359 154.5 Q 374.3 173.2 383 198.5 L 388 221.5 L 389 245.5 L 388 246.5 L 387 263.5 L 380 287.5 Q 370.2 311.7 353.5 329 L 259.5 236 L 162.5 332 Q 142.8 312.8 132 284.5 L 126 262.5 L 124 234.5 L 125 233.5 L 126 215.5 L 129 202.5 L 138 179.5 Q 150.4 154.9 170.5 138 L 193.5 122 L 206.5 116 L 229.5 109 L 242.5 108 L 243.5 107 Z " /><path fill="rgb(54,133,44)" stroke="rgb(54,133,44)" stroke-width="1" opacity="1" d="M 259.5 236 L 399.5 377 L 259.5 236 Z " /><path fill="rgb(54,133,44)" stroke="rgb(54,133,44)" stroke-width="1" opacity="1" d="M 254.5 273 L 135.5 393 L 254.5 273 Z " /><path fill="rgb(54,133,44)" stroke="rgb(54,133,44)" stroke-width="1" opacity="1" d="M 256.5 273 L 379.5 397 L 256.5 273 Z " /><path fill="rgb(54,133,44)" stroke="rgb(54,133,44)" stroke-width="1" opacity="1" d="M 162.5 333 L 119.5 377 L 162.5 333 Z " /><path fill="rgb(53,170,54)" stroke="rgb(53,170,54)" stroke-width="1" opacity="1" d="M 258.5 237 L 400 377.5 L 380.5 397 L 256.5 273 L 254.5 273 L 134.5 393 L 119 377.5 L 163 333.5 L 258.5 237 Z " /></svg>