<svg width="512" height="512" version="1.1" xmlns="http://www.w3.org/2000/svg" desc="Created with imagetracer.js version 1.2.6" ><path fill="rgb(183,40,40)" stroke="rgb(183,40,40)" stroke-width="1" opacity="0.9725490196078431" d="M 282.5 8 L 287 8.5 L 282.5 9 L 282.5 8 Z " /><path fill="rgb(183,40,40)" stroke="rgb(183,40,40)" stroke-width="1" opacity="0.9725490196078431" d="M 291.5 8 L 295 8.5 L 291.5 9 L 291.5 8 Z " /><path fill="rgb(183,40,40)" stroke="rgb(183,40,40)" stroke-width="1" opacity="0.9725490196078431" d="M 268.5 12 L 270 12.5 L 267.5 14 L 268.5 12 Z " /><path fill="rgb(183,40,40)" stroke="rgb(183,40,40)" stroke-width="1" opacity="0.9725490196078431" d="M 306.5 12 L 307.5 14 L 306.5 12 Z " /><path fill="rgb(183,40,40)" stroke="rgb(183,40,40)" stroke-width="1" opacity="0.9725490196078431" d="M 262.5 16 L 261.5 18 L 262.5 16 Z " /><path fill="rgb(183,40,40)" stroke="rgb(183,40,40)" stroke-width="1" opacity="0.9725490196078431" d="M 314.5 17 L 318.5 22 L 314.5 17 Z " /><path fill="rgb(183,40,40)" stroke="rgb(183,40,40)" stroke-width="1" opacity="0.9725490196078431" d="M 259.5 18 L 257 21.5 L 254.5 25 L 256 22.5 L 259.5 18 Z " /><path fill="rgb(183,40,40)" stroke="rgb(183,40,40)" stroke-width="1" opacity="0.9725490196078431" d="M 320.5 24 L 321.5 26 L 320.5 24 Z " /><path fill="rgb(183,40,40)" stroke="rgb(183,40,40)" stroke-width="1" opacity="0.9725490196078431" d="M 252.5 27 L 253 28.5 L 250.5 32 L 250 30.5 L 252.5 27 Z " /><path fill="rgb(183,40,40)" stroke="rgb(183,40,40)" stroke-width="1" opacity="0.9725490196078431" d="M 323.5 28 L 325 30.5 L 323 29.5 L 323.5 28 Z " /><path fill="rgb(183,40,40)" stroke="rgb(183,40,40)" stroke-width="1" opacity="0.9725490196078431" d="M 246.5 44 L 247 51.5 L 246 51.5 L 246.5 44 Z " /><path fill="rgb(183,40,40)" stroke="rgb(183,40,40)" stroke-width="1" opacity="0.9725490196078431" d="M 328.5 44 L 329 49.5 L 328 49.5 L 328.5 44 Z " /><path fill="rgb(183,40,40)" stroke="rgb(183,40,40)" stroke-width="1" opacity="0.9725490196078431" d="M 329.5 56 L 330 60.5 L 329 60.5 L 329.5 56 Z " /><path fill="rgb(183,40,40)" stroke="rgb(183,40,40)" stroke-width="1" opacity="0.9725490196078431" d="M 247.5 60 L 248 64.5 L 247 64.5 L 247.5 60 Z " /><path fill="rgb(183,40,40)" stroke="rgb(183,40,40)" stroke-width="1" opacity="0.9725490196078431" d="M 330.5 69 L 331 72.5 L 330 72.5 L 330.5 69 Z " /><path fill="rgb(183,40,40)" stroke="rgb(183,40,40)" stroke-width="1" opacity="0.9725490196078431" d="M 248.5 71 L 249 76.5 L 248 76.5 L 248.5 71 Z " /><path fill="rgb(183,40,40)" stroke="rgb(183,40,40)" stroke-width="1" opacity="0.9725490196078431" d="M 331.5 81 L 332 85.5 L 331 85.5 L 331.5 81 Z " /><path fill="rgb(183,40,40)" stroke="rgb(183,40,40)" stroke-width="1" opacity="0.9725490196078431" d="M 249.5 86 L 250 88.5 L 249 88.5 L 249.5 86 Z " /><path fill="rgb(183,40,40)" stroke="rgb(183,40,40)" stroke-width="1" opacity="0.9725490196078431" d="M 332.5 93 L 333 97.5 L 332 97.5 L 332.5 93 Z " /><path fill="rgb(183,40,40)" stroke="rgb(183,40,40)" stroke-width="1" opacity="0.9725490196078431" d="M 250.5 97 L 251 102.5 L 250 102.5 L 250.5 97 Z " /><path fill="rgb(183,40,40)" stroke="rgb(183,40,40)" stroke-width="1" opacity="0.9725490196078431" d="M 333.5 104 L 334 109.5 L 333 109.5 L 333.5 104 Z " /><path fill="rgb(183,40,40)" stroke="rgb(183,40,40)" stroke-width="1" opacity="0.9725490196078431" d="M 251.5 109 L 252 114.5 L 251 114.5 L 251.5 109 Z " /><path fill="rgb(183,40,40)" stroke="rgb(183,40,40)" stroke-width="1" opacity="0.9725490196078431" d="M 334.5 117 L 335 120.5 L 334 120.5 L 334.5 117 Z " /><path fill="rgb(183,40,40)" stroke="rgb(183,40,40)" stroke-width="1" opacity="0.9725490196078431" d="M 252.5 123 L 253 125.5 L 252 125.5 L 252.5 123 Z " /><path fill="rgb(183,40,40)" stroke="rgb(183,40,40)" stroke-width="1" opacity="0.9725490196078431" d="M 335.5 128 L 336 131.5 L 335 131.5 L 335.5 128 Z " /><path fill="rgb(183,40,40)" stroke="rgb(183,40,40)" stroke-width="1" opacity="0.9725490196078431" d="M 253.5 134 L 254 139.5 L 253 139.5 L 253.5 134 Z " /><path fill="rgb(183,40,40)" stroke="rgb(183,40,40)" stroke-width="1" opacity="0.9725490196078431" d="M 336.5 140 L 337 145.5 L 336 145.5 L 336.5 140 Z " /><path fill="rgb(183,40,40)" stroke="rgb(183,40,40)" stroke-width="1" opacity="0.9725490196078431" d="M 254.5 148 L 255 151.5 L 254 151.5 L 254.5 148 Z " /><path fill="rgb(183,40,40)" stroke="rgb(183,40,40)" stroke-width="1" opacity="0.9725490196078431" d="M 337.5 152 L 338 154.5 L 337 154.5 L 337.5 152 Z " /><path fill="rgb(183,40,40)" stroke="rgb(183,40,40)" stroke-width="1" opacity="0.9725490196078431" d="M 255.5 158 L 256 162.5 L 255 162.5 L 255.5 158 Z " /><path fill="rgb(183,40,40)" stroke="rgb(183,40,40)" stroke-width="1" opacity="0.9725490196078431" d="M 338.5 163 L 339 168.5 L 338 168.5 L 338.5 163 Z " /><path fill="rgb(183,40,40)" stroke="rgb(183,40,40)" stroke-width="1" opacity="0.9725490196078431" d="M 256.5 174 L 257 176.5 L 256 176.5 L 256.5 174 Z " /><path fill="rgb(183,40,40)" stroke="rgb(183,40,40)" stroke-width="1" opacity="0.9725490196078431" d="M 339.5 176 L 340 179.5 L 339 179.5 L 339.5 176 Z " /><path fill="rgb(183,40,40)" stroke="rgb(183,40,40)" stroke-width="1" opacity="0.9725490196078431" d="M 257.5 183 L 258 188.5 L 257 188.5 L 257.5 183 Z " /><path fill="rgb(183,40,40)" stroke="rgb(183,40,40)" stroke-width="1" opacity="0.9725490196078431" d="M 340.5 187 L 341 190.5 L 340 190.5 L 340.5 187 Z " /><path fill="rgb(183,40,40)" stroke="rgb(183,40,40)" stroke-width="1" opacity="0.9725490196078431" d="M 258.5 197 L 259 199.5 L 258 199.5 L 258.5 197 Z " /><path fill="rgb(183,40,40)" stroke="rgb(183,40,40)" stroke-width="1" opacity="0.9725490196078431" d="M 341.5 197 L 342 201.5 L 341 201.5 L 341.5 197 Z " /><path fill="rgb(183,40,40)" stroke="rgb(183,40,40)" stroke-width="1" opacity="0.9725490196078431" d="M 259.5 206 L 260 210.5 L 259 210.5 L 259.5 206 Z " /><path fill="rgb(183,40,40)" stroke="rgb(183,40,40)" stroke-width="1" opacity="0.9725490196078431" d="M 342.5 208 L 343 213.5 L 342 213.5 L 342.5 208 Z " /><path fill="rgb(183,40,40)" stroke="rgb(183,40,40)" stroke-width="1" opacity="0.9725490196078431" d="M 260.5 216 L 261 221.5 L 260 221.5 L 260.5 216 Z " /><path fill="rgb(183,40,40)" stroke="rgb(183,40,40)" stroke-width="1" opacity="0.9725490196078431" d="M 343.5 219 L 344 223.5 L 343 223.5 L 343.5 219 Z " /><path fill="rgb(183,40,40)" stroke="rgb(183,40,40)" stroke-width="1" opacity="0.9725490196078431" d="M 261.5 228 L 262 231.5 L 261 231.5 L 261.5 228 Z " /><path fill="rgb(183,40,40)" stroke="rgb(183,40,40)" stroke-width="1" opacity="0.9725490196078431" d="M 344.5 229 L 345 232.5 L 344 232.5 L 344.5 229 Z " /><path fill="rgb(183,40,40)" stroke="rgb(183,40,40)" stroke-width="1" opacity="0.9725490196078431" d="M 262.5 239 L 263 241.5 L 262 241.5 L 262.5 239 Z " /><path fill="rgb(183,40,40)" stroke="rgb(183,40,40)" stroke-width="1" opacity="0.9725490196078431" d="M 345.5 241 L 346 246.5 L 345 246.5 L 345.5 241 Z " /><path fill="rgb(183,40,40)" stroke="rgb(183,40,40)" stroke-width="1" opacity="0.9725490196078431" d="M 263.5 250 L 264 253.5 L 263 253.5 L 263.5 250 Z " /><path fill="rgb(183,40,40)" stroke="rgb(183,40,40)" stroke-width="1" opacity="0.9725490196078431" d="M 346.5 253 L 347 257.5 L 346 257.5 L 346.5 253 Z " /><path fill="rgb(183,40,40)" stroke="rgb(183,40,40)" stroke-width="1" opacity="0.9725490196078431" d="M 264.5 259 L 265 263.5 L 264 263.5 L 264.5 259 Z " /><path fill="rgb(183,40,40)" stroke="rgb(183,40,40)" stroke-width="1" opacity="0.9725490196078431" d="M 347.5 264 L 348 269.5 L 347 269.5 L 347.5 264 Z " /><path fill="rgb(183,40,40)" stroke="rgb(183,40,40)" stroke-width="1" opacity="0.9725490196078431" d="M 265.5 272 L 266 275.5 L 265 275.5 L 265.5 272 Z " /><path fill="rgb(183,40,40)" stroke="rgb(183,40,40)" stroke-width="1" opacity="0.9725490196078431" d="M 348.5 276 L 349 280.5 L 348 280.5 L 348.5 276 Z " /><path fill="rgb(183,40,40)" stroke="rgb(183,40,40)" stroke-width="1" opacity="0.9725490196078431" d="M 266.5 283 L 267 285.5 L 266 285.5 L 266.5 283 Z " /><path fill="rgb(183,40,40)" stroke="rgb(183,40,40)" stroke-width="1" opacity="0.9725490196078431" d="M 349.5 289 L 350 292.5 L 349 292.5 L 349.5 289 Z " /><path fill="rgb(183,40,40)" stroke="rgb(183,40,40)" stroke-width="1" opacity="0.9725490196078431" d="M 267.5 292 L 268 297.5 L 267 297.5 L 267.5 292 Z " /><path fill="rgb(183,40,40)" stroke="rgb(183,40,40)" stroke-width="1" opacity="0.9725490196078431" d="M 350.5 301 L 351 305.5 L 350 305.5 L 350.5 301 Z " /><path fill="rgb(183,40,40)" stroke="rgb(183,40,40)" stroke-width="1" opacity="0.9725490196078431" d="M 268.5 306 L 269 308.5 L 268 308.5 L 268.5 306 Z " /><path fill="rgb(183,40,40)" stroke="rgb(183,40,40)" stroke-width="1" opacity="0.9725490196078431" d="M 351.5 312 L 352 315.5 L 351 315.5 L 351.5 312 Z " /><path fill="rgb(183,40,40)" stroke="rgb(183,40,40)" stroke-width="1" opacity="0.9725490196078431" d="M 269.5 314 L 270 318.5 L 269 318.5 L 269.5 314 Z " /><path fill="rgb(183,40,40)" stroke="rgb(183,40,40)" stroke-width="1" opacity="0.9725490196078431" d="M 352.5 323 L 353 326.5 L 352 326.5 L 352.5 323 Z " /><path fill="rgb(183,40,40)" stroke="rgb(183,40,40)" stroke-width="1" opacity="0.9725490196078431" d="M 270.5 325 L 271 329.5 L 270 329.5 L 270.5 325 Z " /><path fill="rgb(183,40,40)" stroke="rgb(183,40,40)" stroke-width="1" opacity="0.9725490196078431" d="M 168.5 328 L 186 328.5 L 168.5 329 L 168.5 328 Z " /><path fill="rgb(183,40,40)" stroke="rgb(183,40,40)" stroke-width="1" opacity="0.9725490196078431" d="M 212.5 329 L 229 329.5 L 212.5 330 L 212.5 329 Z " /><path fill="rgb(183,40,40)" stroke="rgb(183,40,40)" stroke-width="1" opacity="0.9725490196078431" d="M 230.5 329 L 236 329.5 L 230.5 330 L 230.5 329 Z " /><path fill="rgb(183,40,40)" stroke="rgb(183,40,40)" stroke-width="1" opacity="0.9725490196078431" d="M 258.5 330 L 267 330.5 L 258.5 331 L 258.5 330 Z " /><path fill="rgb(183,40,40)" stroke="rgb(183,40,40)" stroke-width="1" opacity="0.9725490196078431" d="M 117.5 331 L 116.5 333 L 115 332.5 L 117.5 331 Z " /><path fill="rgb(183,40,40)" stroke="rgb(183,40,40)" stroke-width="1" opacity="0.9725490196078431" d="M 353.5 335 L 354 340.5 L 353 340.5 L 353.5 335 Z " /><path fill="rgb(183,40,40)" stroke="rgb(183,40,40)" stroke-width="1" opacity="0.9725490196078431" d="M 109.5 336 L 107.5 339 L 109.5 336 Z " /><path fill="rgb(183,40,40)" stroke="rgb(183,40,40)" stroke-width="1" opacity="0.9725490196078431" d="M 105.5 339 L 106 340.5 L 102 343.5 L 105.5 339 Z " /><path fill="rgb(183,40,40)" stroke="rgb(183,40,40)" stroke-width="1" opacity="0.9725490196078431" d="M 354.5 348 L 355 351.5 L 354 351.5 L 354.5 348 Z " /><path fill="rgb(183,40,40)" stroke="rgb(183,40,40)" stroke-width="1" opacity="0.9725490196078431" d="M 95.5 359 L 96 361.5 L 95 361.5 L 95.5 359 Z " /><path fill="rgb(183,40,40)" stroke="rgb(183,40,40)" stroke-width="1" opacity="0.9725490196078431" d="M 355.5 360 L 356 365.5 L 355 365.5 L 355.5 360 Z " /><path fill="rgb(183,40,40)" stroke="rgb(183,40,40)" stroke-width="1" opacity="0.9725490196078431" d="M 356.5 372 L 357 375.5 L 356 375.5 L 356.5 372 Z " /><path fill="rgb(183,40,40)" stroke="rgb(183,40,40)" stroke-width="1" opacity="0.9725490196078431" d="M 355.5 380 L 356 382.5 L 355 382.5 L 355.5 380 Z " /><path fill="rgb(183,40,40)" stroke="rgb(183,40,40)" stroke-width="1" opacity="0.9725490196078431" d="M 354.5 385 L 355 386.5 L 353.5 389 L 353 387.5 L 354.5 385 Z " /><path fill="rgb(183,40,40)" stroke="rgb(183,40,40)" stroke-width="1" opacity="0.9725490196078431" d="M 351.5 392 L 351 393.5 L 350.5 395 L 350 393.5 L 351.5 392 Z " /><path fill="rgb(183,40,40)" stroke="rgb(183,40,40)" stroke-width="1" opacity="0.9725490196078431" d="M 102.5 393 L 104.5 396 L 102.5 393 Z " /><path fill="rgb(183,40,40)" stroke="rgb(183,40,40)" stroke-width="1" opacity="0.9725490196078431" d="M 105.5 397 L 107.5 400 L 105.5 397 Z " /><path fill="rgb(183,40,40)" stroke="rgb(183,40,40)" stroke-width="1" opacity="0.9725490196078431" d="M 347.5 398 L 340.5 406 L 347.5 398 Z " /><path fill="rgb(183,40,40)" stroke="rgb(183,40,40)" stroke-width="1" opacity="0.9725490196078431" d="M 109.5 400 L 110.5 402 L 109.5 400 Z " /><path fill="rgb(183,40,40)" stroke="rgb(183,40,40)" stroke-width="1" opacity="0.9725490196078431" d="M 116.5 405 L 119 406.5 L 117.5 406 L 116.5 405 Z " /><path fill="rgb(183,40,40)" stroke="rgb(183,40,40)" stroke-width="1" opacity="0.9725490196078431" d="M 128.5 409 L 133 409.5 L 128.5 410 L 128.5 409 Z " /><path fill="rgb(183,40,40)" stroke="rgb(183,40,40)" stroke-width="1" opacity="0.9725490196078431" d="M 334.5 409 L 333.5 411 L 332 410.5 L 334.5 409 Z " /><path fill="rgb(183,40,40)" stroke="rgb(183,40,40)" stroke-width="1" opacity="0.9725490196078431" d="M 161.5 410 L 171 410.5 L 161.5 411 L 161.5 410 Z " /><path fill="rgb(183,40,40)" stroke="rgb(183,40,40)" stroke-width="1" opacity="0.9725490196078431" d="M 199.5 411 L 207 411.5 L 199.5 412 L 199.5 411 Z " /><path fill="rgb(183,40,40)" stroke="rgb(183,40,40)" stroke-width="1" opacity="0.9725490196078431" d="M 329.5 411 L 331 411.5 L 327.5 413 L 327.5 412 L 329.5 411 Z " /><path fill="rgb(183,40,40)" stroke="rgb(183,40,40)" stroke-width="1" opacity="0.9725490196078431" d="M 228.5 412 L 244 412.5 L 228.5 413 L 228.5 412 Z " /><path fill="rgb(183,40,40)" stroke="rgb(183,40,40)" stroke-width="1" opacity="0.9725490196078431" d="M 267.5 413 L 281 413.5 L 267.5 414 L 267.5 413 Z " /><path fill="rgb(183,40,40)" stroke="rgb(183,40,40)" stroke-width="1" opacity="0.9725490196078431" d="M 312.5 414 L 317 414.5 L 312.5 415 L 312.5 414 Z " /><path fill="rgb(0,0,0)" stroke="rgb(0,0,0)" stroke-width="1" opacity="0" d="M 0 0 L 512 0 L 512 512 L 0 512 L 0 0 Z M 283 7 L 274 9 L 262 15 Q 254 20 250 30 Q 246 31 249 33 L 246 39 L 245 45 L 245 47 Q 244 51 246 53 L 245 55 L 246 56 L 246 66 L 247 67 L 241 68 L 232 68 L 231 69 L 222 69 L 183 81 Q 153 93 132 113 Q 107 134 91 163 Q 81 181 74 203 L 67 240 L 67 273 L 68 274 L 68 282 L 71 298 Q 79 331 95 356 L 94 359 L 94 379 L 100 394 L 111 404 L 113 404 L 118 408 L 127 410 L 129 410 L 130 411 L 148 411 Q 165 424 188 433 L 210 440 L 239 445 L 274 445 L 307 439 Q 350 426 381 399 Q 405 378 421 350 Q 431 331 438 310 L 445 273 L 445 240 L 438 203 Q 425 161 399 132 Q 373 101 335 84 L 333 83 L 332 70 L 331 69 L 332 67 L 331 66 L 329 39 L 327 32 L 320 23 L 320 21 L 308 11 L 302 9 L 300 9 L 296 7 L 283 7 Z " /><path fill="rgb(67,159,53)" stroke="rgb(67,159,53)" stroke-width="1" opacity="0.16470588235294117" d="M 241.5 67 L 245 67.5 L 241.5 68 L 241.5 67 Z " /><path fill="rgb(67,159,53)" stroke="rgb(67,159,53)" stroke-width="1" opacity="0.16470588235294117" d="M 247.5 72 L 248 76.5 L 247 76.5 L 247.5 72 Z " /><path fill="rgb(67,159,53)" stroke="rgb(67,159,53)" stroke-width="1" opacity="0.16470588235294117" d="M 248.5 86 L 249 88.5 L 248 88.5 L 248.5 86 Z " /><path fill="rgb(67,159,53)" stroke="rgb(67,159,53)" stroke-width="1" opacity="0.16470588235294117" d="M 164.5 90 L 163.5 92 L 162 91.5 L 164.5 90 Z " /><path fill="rgb(67,159,53)" stroke="rgb(67,159,53)" stroke-width="1" opacity="0.16470588235294117" d="M 333.5 91 L 334 96.5 L 333 96.5 L 333.5 91 Z " /><path fill="rgb(67,159,53)" stroke="rgb(67,159,53)" stroke-width="1" opacity="0.16470588235294117" d="M 249.5 98 L 250 102.5 L 249 102.5 L 249.5 98 Z " /><path fill="rgb(67,159,53)" stroke="rgb(67,159,53)" stroke-width="1" opacity="0.16470588235294117" d="M 131.5 113 L 130.5 115 L 131.5 113 Z " /><path fill="rgb(67,159,53)" stroke="rgb(67,159,53)" stroke-width="1" opacity="0.16470588235294117" d="M 380.5 113 L 381.5 115 L 380.5 113 Z " /><path fill="rgb(67,159,53)" stroke="rgb(67,159,53)" stroke-width="1" opacity="0.16470588235294117" d="M 128.5 116 L 126.5 119 L 128.5 116 Z " /><path fill="rgb(67,159,53)" stroke="rgb(67,159,53)" stroke-width="1" opacity="0.16470588235294117" d="M 335.5 117 L 336 119.5 L 335 119.5 L 335.5 117 Z " /><path fill="rgb(67,159,53)" stroke="rgb(67,159,53)" stroke-width="1" opacity="0.16470588235294117" d="M 124.5 120 L 121.5 124 L 124.5 120 Z " /><path fill="rgb(67,159,53)" stroke="rgb(67,159,53)" stroke-width="1" opacity="0.16470588235294117" d="M 389.5 122 L 390.5 124 L 389.5 122 Z " /><path fill="rgb(67,159,53)" stroke="rgb(67,159,53)" stroke-width="1" opacity="0.16470588235294117" d="M 251.5 123 L 252 127.5 L 251 127.5 L 251.5 123 Z " /><path fill="rgb(67,159,53)" stroke="rgb(67,159,53)" stroke-width="1" opacity="0.16470588235294117" d="M 118.5 126 L 114.5 131 L 118.5 126 Z " /><path fill="rgb(67,159,53)" stroke="rgb(67,159,53)" stroke-width="1" opacity="0.16470588235294117" d="M 393.5 126 L 397.5 131 L 393.5 126 Z " /><path fill="rgb(67,159,53)" stroke="rgb(67,159,53)" stroke-width="1" opacity="0.16470588235294117" d="M 110.5 135 L 108.5 138 L 110.5 135 Z " /><path fill="rgb(67,159,53)" stroke="rgb(67,159,53)" stroke-width="1" opacity="0.16470588235294117" d="M 252.5 135 L 253 137.5 L 252 137.5 L 252.5 135 Z " /><path fill="rgb(67,159,53)" stroke="rgb(67,159,53)" stroke-width="1" opacity="0.16470588235294117" d="M 402.5 136 L 403.5 138 L 402.5 136 Z " /><path fill="rgb(67,159,53)" stroke="rgb(67,159,53)" stroke-width="1" opacity="0.16470588235294117" d="M 337.5 140 L 338 142.5 L 337 142.5 L 337.5 140 Z " /><path fill="rgb(67,159,53)" stroke="rgb(67,159,53)" stroke-width="1" opacity="0.16470588235294117" d="M 253.5 146 L 254 151.5 L 253 151.5 L 253.5 146 Z " /><path fill="rgb(67,159,53)" stroke="rgb(67,159,53)" stroke-width="1" opacity="0.16470588235294117" d="M 95.5 156 L 94.5 158 L 95.5 156 Z " /><path fill="rgb(67,159,53)" stroke="rgb(67,159,53)" stroke-width="1" opacity="0.16470588235294117" d="M 416.5 156 L 417.5 158 L 416.5 156 Z " /><path fill="rgb(67,159,53)" stroke="rgb(67,159,53)" stroke-width="1" opacity="0.16470588235294117" d="M 339.5 163 L 340 167.5 L 339 167.5 L 339.5 163 Z " /><path fill="rgb(67,159,53)" stroke="rgb(67,159,53)" stroke-width="1" opacity="0.16470588235294117" d="M 255.5 172 L 256 174.5 L 255 174.5 L 255.5 172 Z " /><path fill="rgb(67,159,53)" stroke="rgb(67,159,53)" stroke-width="1" opacity="0.16470588235294117" d="M 84.5 176 L 85 177.5 L 83 178.5 L 84.5 176 Z " /><path fill="rgb(67,159,53)" stroke="rgb(67,159,53)" stroke-width="1" opacity="0.16470588235294117" d="M 340.5 176 L 341 179.5 L 340 179.5 L 340.5 176 Z " /><path fill="rgb(67,159,53)" stroke="rgb(67,159,53)" stroke-width="1" opacity="0.16470588235294117" d="M 256.5 185 L 257 188.5 L 256 188.5 L 256.5 185 Z " /><path fill="rgb(67,159,53)" stroke="rgb(67,159,53)" stroke-width="1" opacity="0.16470588235294117" d="M 341.5 187 L 342 190.5 L 341 190.5 L 341.5 187 Z " /><path fill="rgb(67,159,53)" stroke="rgb(67,159,53)" stroke-width="1" opacity="0.16470588235294117" d="M 342.5 196 L 343 201.5 L 342 201.5 L 342.5 196 Z " /><path fill="rgb(67,159,53)" stroke="rgb(67,159,53)" stroke-width="1" opacity="0.16470588235294117" d="M 257.5 197 L 258 199.5 L 257 199.5 L 257.5 197 Z " /><path fill="rgb(67,159,53)" stroke="rgb(67,159,53)" stroke-width="1" opacity="0.16470588235294117" d="M 258.5 206 L 259 211.5 L 258 211.5 L 258.5 206 Z " /><path fill="rgb(67,159,53)" stroke="rgb(67,159,53)" stroke-width="1" opacity="0.16470588235294117" d="M 259.5 218 L 260 221.5 L 259 221.5 L 259.5 218 Z " /><path fill="rgb(67,159,53)" stroke="rgb(67,159,53)" stroke-width="1" opacity="0.16470588235294117" d="M 344.5 219 L 345 221.5 L 344 221.5 L 344.5 219 Z " /><path fill="rgb(67,159,53)" stroke="rgb(67,159,53)" stroke-width="1" opacity="0.16470588235294117" d="M 260.5 228 L 261 230.5 L 260 230.5 L 260.5 228 Z " /><path fill="rgb(67,159,53)" stroke="rgb(67,159,53)" stroke-width="1" opacity="0.16470588235294117" d="M 345.5 230 L 346 232.5 L 345 232.5 L 345.5 230 Z " /><path fill="rgb(67,159,53)" stroke="rgb(67,159,53)" stroke-width="1" opacity="0.16470588235294117" d="M 261.5 239 L 262 244.5 L 261 244.5 L 261.5 239 Z " /><path fill="rgb(67,159,53)" stroke="rgb(67,159,53)" stroke-width="1" opacity="0.16470588235294117" d="M 67.5 241 L 68 243.5 L 67 243.5 L 67.5 241 Z " /><path fill="rgb(67,159,53)" stroke="rgb(67,159,53)" stroke-width="1" opacity="0.16470588235294117" d="M 346.5 241 L 347 243.5 L 346 243.5 L 346.5 241 Z " /><path fill="rgb(67,159,53)" stroke="rgb(67,159,53)" stroke-width="1" opacity="0.16470588235294117" d="M 262.5 250 L 263 252.5 L 262 252.5 L 262.5 250 Z " /><path fill="rgb(67,159,53)" stroke="rgb(67,159,53)" stroke-width="1" opacity="0.16470588235294117" d="M 347.5 252 L 348 257.5 L 347 257.5 L 347.5 252 Z " /><path fill="rgb(67,159,53)" stroke="rgb(67,159,53)" stroke-width="1" opacity="0.16470588235294117" d="M 263.5 262 L 264 264.5 L 263 264.5 L 263.5 262 Z " /><path fill="rgb(67,159,53)" stroke="rgb(67,159,53)" stroke-width="1" opacity="0.16470588235294117" d="M 348.5 266 L 349 268.5 L 348 268.5 L 348.5 266 Z " /><path fill="rgb(67,159,53)" stroke="rgb(67,159,53)" stroke-width="1" opacity="0.16470588235294117" d="M 264.5 272 L 265 275.5 L 264 275.5 L 264.5 272 Z " /><path fill="rgb(67,159,53)" stroke="rgb(67,159,53)" stroke-width="1" opacity="0.16470588235294117" d="M 349.5 276 L 350 280.5 L 349 280.5 L 349.5 276 Z " /><path fill="rgb(67,159,53)" stroke="rgb(67,159,53)" stroke-width="1" opacity="0.16470588235294117" d="M 265.5 283 L 266 286.5 L 265 286.5 L 265.5 283 Z " /><path fill="rgb(67,159,53)" stroke="rgb(67,159,53)" stroke-width="1" opacity="0.16470588235294117" d="M 350.5 289 L 351 292.5 L 350 292.5 L 350.5 289 Z " /><path fill="rgb(67,159,53)" stroke="rgb(67,159,53)" stroke-width="1" opacity="0.16470588235294117" d="M 266.5 295 L 267 297.5 L 266 297.5 L 266.5 295 Z " /><path fill="rgb(67,159,53)" stroke="rgb(67,159,53)" stroke-width="1" opacity="0.16470588235294117" d="M 351.5 301 L 352 303.5 L 351 303.5 L 351.5 301 Z " /><path fill="rgb(67,159,53)" stroke="rgb(67,159,53)" stroke-width="1" opacity="0.16470588235294117" d="M 267.5 304 L 268 308.5 L 267 308.5 L 267.5 304 Z " /><path fill="rgb(67,159,53)" stroke="rgb(67,159,53)" stroke-width="1" opacity="0.16470588235294117" d="M 352.5 312 L 353 317.5 L 352 317.5 L 352.5 312 Z " /><path fill="rgb(67,159,53)" stroke="rgb(67,159,53)" stroke-width="1" opacity="0.16470588235294117" d="M 268.5 315 L 269 319.5 L 268 319.5 L 268.5 315 Z " /><path fill="rgb(67,159,53)" stroke="rgb(67,159,53)" stroke-width="1" opacity="0.16470588235294117" d="M 353.5 324 L 354 328.5 L 353 328.5 L 353.5 324 Z " /><path fill="rgb(67,159,53)" stroke="rgb(67,159,53)" stroke-width="1" opacity="0.16470588235294117" d="M 168.5 327 L 178 327.5 L 168.5 328 L 168.5 327 Z " /><path fill="rgb(67,159,53)" stroke="rgb(67,159,53)" stroke-width="1" opacity="0.16470588235294117" d="M 179.5 327 L 188 327.5 L 179.5 328 L 179.5 327 Z " /><path fill="rgb(67,159,53)" stroke="rgb(67,159,53)" stroke-width="1" opacity="0.16470588235294117" d="M 220.5 328 L 229 328.5 L 220.5 329 L 220.5 328 Z " /><path fill="rgb(67,159,53)" stroke="rgb(67,159,53)" stroke-width="1" opacity="0.16470588235294117" d="M 230.5 328 L 236 328.5 L 230.5 329 L 230.5 328 Z " /><path fill="rgb(67,159,53)" stroke="rgb(67,159,53)" stroke-width="1" opacity="0.16470588235294117" d="M 255.5 329 L 265 329.5 L 255.5 330 L 255.5 329 Z " /><path fill="rgb(67,159,53)" stroke="rgb(67,159,53)" stroke-width="1" opacity="0.16470588235294117" d="M 116.5 330 L 118 330.5 L 115.5 332 L 116.5 330 Z " /><path fill="rgb(67,159,53)" stroke="rgb(67,159,53)" stroke-width="1" opacity="0.16470588235294117" d="M 109.5 334 L 111 334.5 L 101 343.5 L 100.5 345 L 100 343.5 L 109.5 334 Z " /><path fill="rgb(67,159,53)" stroke="rgb(67,159,53)" stroke-width="1" opacity="0.16470588235294117" d="M 354.5 335 L 355 339.5 L 354 339.5 L 354.5 335 Z " /><path fill="rgb(67,159,53)" stroke="rgb(67,159,53)" stroke-width="1" opacity="0.16470588235294117" d="M 355.5 349 L 356 351.5 L 355 351.5 L 355.5 349 Z " /><path fill="rgb(67,159,53)" stroke="rgb(67,159,53)" stroke-width="1" opacity="0.16470588235294117" d="M 94.5 354 Q 96.8 353.3 96 355.5 L 94.5 354 Z " /><path fill="rgb(67,159,53)" stroke="rgb(67,159,53)" stroke-width="1" opacity="0.16470588235294117" d="M 417.5 354 L 416.5 356 L 417.5 354 Z " /><path fill="rgb(67,159,53)" stroke="rgb(67,159,53)" stroke-width="1" opacity="0.16470588235294117" d="M 356.5 360 L 357 362.5 L 356 362.5 L 356.5 360 Z " /><path fill="rgb(67,159,53)" stroke="rgb(67,159,53)" stroke-width="1" opacity="0.16470588235294117" d="M 409.5 365 L 410 366.5 L 408 367.5 L 409.5 365 Z " /><path fill="rgb(67,159,53)" stroke="rgb(67,159,53)" stroke-width="1" opacity="0.16470588235294117" d="M 406.5 370 L 405.5 372 L 406.5 370 Z " /><path fill="rgb(67,159,53)" stroke="rgb(67,159,53)" stroke-width="1" opacity="0.16470588235294117" d="M 402.5 375 L 400.5 378 L 402.5 375 Z " /><path fill="rgb(67,159,53)" stroke="rgb(67,159,53)" stroke-width="1" opacity="0.16470588235294117" d="M 396.5 382 L 395.5 384 L 396.5 382 Z " /><path fill="rgb(67,159,53)" stroke="rgb(67,159,53)" stroke-width="1" opacity="0.16470588235294117" d="M 393.5 385 L 392.5 387 L 393.5 385 Z " /><path fill="rgb(67,159,53)" stroke="rgb(67,159,53)" stroke-width="1" opacity="0.16470588235294117" d="M 390.5 388 L 388.5 391 L 390.5 388 Z " /><path fill="rgb(67,159,53)" stroke="rgb(67,159,53)" stroke-width="1" opacity="0.16470588235294117" d="M 352.5 392 L 353 393.5 L 351 394.5 L 352.5 392 Z " /><path fill="rgb(67,159,53)" stroke="rgb(67,159,53)" stroke-width="1" opacity="0.16470588235294117" d="M 385.5 393 L 384.5 395 L 385.5 393 Z " /><path fill="rgb(67,159,53)" stroke="rgb(67,159,53)" stroke-width="1" opacity="0.16470588235294117" d="M 350.5 396 L 349.5 398 L 350.5 396 Z " /><path fill="rgb(67,159,53)" stroke="rgb(67,159,53)" stroke-width="1" opacity="0.16470588235294117" d="M 382.5 396 L 381.5 398 L 382.5 396 Z " /><path fill="rgb(67,159,53)" stroke="rgb(67,159,53)" stroke-width="1" opacity="0.16470588235294117" d="M 148.5 411 Q 150.8 410.3 150 412.5 L 148.5 411 Z " /><path fill="rgb(67,159,53)" stroke="rgb(67,159,53)" stroke-width="1" opacity="0.16470588235294117" d="M 155.5 411 L 171 411.5 L 155.5 412 L 155.5 411 Z " /><path fill="rgb(67,159,53)" stroke="rgb(67,159,53)" stroke-width="1" opacity="0.16470588235294117" d="M 206.5 412 L 211 412.5 L 206.5 413 L 206.5 412 Z " /><path fill="rgb(67,159,53)" stroke="rgb(67,159,53)" stroke-width="1" opacity="0.16470588235294117" d="M 228.5 413 L 237 413.5 L 228.5 414 L 228.5 413 Z " /><path fill="rgb(67,159,53)" stroke="rgb(67,159,53)" stroke-width="1" opacity="0.16470588235294117" d="M 273.5 414 L 283 414.5 L 273.5 415 L 273.5 414 Z " /><path fill="rgb(67,159,53)" stroke="rgb(67,159,53)" stroke-width="1" opacity="0.16470588235294117" d="M 312.5 415 L 318 415.5 L 312.5 416 L 312.5 415 Z " /><path fill="rgb(67,159,53)" stroke="rgb(67,159,53)" stroke-width="1" opacity="0.16470588235294117" d="M 332.5 428 L 334 428.5 L 331.5 430 L 332.5 428 Z " /><path fill="rgb(52,170,52)" stroke="rgb(52,170,52)" stroke-width="1" opacity="0.21176470588235294" d="M 245.5 67 L 247 67.5 L 247 76.5 L 248 77.5 L 248 88.5 L 249 90.5 L 249 92.5 L 249 102.5 L 251 112.5 L 250 114.5 L 251 115.5 L 251 127.5 L 253 138.5 L 253 140.5 L 253 151.5 L 254 152.5 L 254 162.5 L 255 163.5 L 254 165.5 L 256 176.5 L 256 178.5 L 258 211.5 L 259 212.5 L 259 221.5 L 261 232.5 L 261 234.5 L 261 244.5 L 263 254.5 L 263 256.5 L 266 297.5 L 267 298.5 L 267 308.5 L 268 309.5 L 268 319.5 L 270 329.5 L 268.5 330 L 266.5 329 L 264.5 329 L 236.5 329 Q 235.2 326.8 230.5 328 L 228.5 328 L 194.5 328 L 193.5 327 L 191.5 328 L 189.5 327 L 187.5 327 L 179.5 327 L 178.5 328 L 177.5 327 L 141.5 327 L 140.5 326 L 138.5 327 L 136.5 327 L 133.5 326 L 131.5 327 L 129.5 327 L 125.5 327 L 116.5 330 L 111.5 334 L 109.5 334 L 100 343.5 L 96 354 Q 93.3 355.1 94 352.5 L 83 333.5 L 74 309.5 L 74 307.5 L 71 297.5 L 71 295.5 L 69 287.5 L 69 283.5 L 68 281.5 L 69 279.5 L 67 271.5 L 68 269.5 L 67 264.5 L 67 262.5 L 67 249.5 L 68 248.5 L 67 244.5 L 68 241.5 L 68 239.5 L 69 231.5 L 69 229.5 L 70 227.5 L 70 225.5 Q 69 218.5 72 215.5 L 72 213.5 L 74 202.5 L 82 180.5 L 85 177.5 L 85 174.5 L 91 162.5 L 103 144 L 105 143.5 Q 102.8 142.3 105.5 141 Q 107.8 141.8 107 139.5 L 113 131 L 119 126.5 L 120.5 124 L 125 120.5 Q 124.3 118.3 126.5 119 L 129 115 L 136 111 Q 134.9 108.3 137.5 109 Q 141.1 103.3 148 102 Q 146.9 99.3 149.5 100 L 152 99 Q 150.9 96.3 153.5 97 L 160.5 92 L 163.5 92 L 168.5 88 L 190.5 78 Q 192 80.5 193.5 77 Q 201 76.5 205.5 73 L 207.5 73 L 209.5 72 L 211.5 72 L 213.5 71 L 215.5 71 L 222.5 69 L 224.5 69 Q 230 70.5 231.5 68 L 233.5 69 L 234.5 68 L 244.5 68 L 245.5 67 Z " /><path fill="rgb(52,170,52)" stroke="rgb(52,170,52)" stroke-width="1" opacity="0.21176470588235294" d="M 333.5 83 L 360 97 Q 358.9 99.7 361.5 99 L 364 100 Q 362.8 103 366.5 102 L 371 105.5 Q 370.3 107.8 372.5 107 L 376 109 Q 374.9 111.7 377.5 111 L 384 116.5 Q 383.3 118.8 385.5 118 L 390.5 124 L 393 125.5 L 397.5 131 Q 399.8 130.3 399 132.5 L 405 141 L 408 142.5 L 407.5 144 L 410 145.5 L 421 162.5 L 430 180.5 L 438 202.5 L 444 232.5 L 444 234.5 Q 442.8 239.2 445 240.5 L 444 242.5 L 445 247.5 L 445 249.5 L 445 261.5 L 444 262.5 Q 446.3 263.8 445 268.5 L 444 270.5 L 445 272.5 L 443 280.5 L 443 282.5 L 442 284.5 L 442 286.5 L 440 301.5 L 437 308.5 L 437 310.5 L 429 334 Q 426 332.8 427 336.5 L 421 349.5 L 410.5 365 Q 408.3 364.3 409 366.5 L 404 375 L 400 377.5 L 398 382 L 395 383.5 Q 395.8 385.8 393.5 385 L 392 388 L 388 390.5 L 386.5 393 L 384 394.5 Q 384.8 396.8 382.5 396 L 381 399 L 371 405 L 369.5 408 L 360 413 Q 361.3 416 357.5 415 L 341.5 425 L 332.5 428 L 329.5 431 L 321.5 434 L 319.5 434 L 306.5 439 L 304.5 439 L 280.5 444 L 276.5 444 L 272.5 445 L 270.5 444 L 269.5 445 L 241.5 445 L 238.5 444 L 234.5 443 L 230.5 443 L 218.5 442 L 206.5 438 L 204.5 438 L 187.5 433 L 183.5 430 Q 182 432.5 180.5 429 L 172.5 426 L 154.5 415 L 152 415 L 150 411 L 152.5 412 L 154.5 411 L 155.5 412 L 192.5 412 L 193.5 413 L 196.5 412 L 198.5 412 L 201.5 413 L 203.5 413 L 205.5 412 L 206.5 413 L 224.5 413 L 226.5 414 L 228.5 414 L 259.5 414 L 260.5 415 L 262.5 414 L 264.5 414 L 267.5 415 L 269.5 414 L 271.5 415 L 273.5 415 L 305.5 415 L 306.5 416 L 308.5 415 L 310.5 415 L 317.5 416 L 328.5 414 L 335.5 411 L 351 396.5 L 356 386.5 L 358 374.5 L 358 372.5 Q 355.3 368.7 357 360.5 L 356 359.5 L 356 357.5 Q 357.3 350.7 355 347.5 L 355 345.5 L 353 312.5 L 352 311.5 L 352 301.5 L 351 300.5 L 351 289.5 L 350 288.5 L 350 276.5 L 348 265.5 L 348 263.5 L 348 252.5 L 347 251.5 L 347 241.5 L 346 240.5 Q 347.7 232.3 345 228.5 L 345 226.5 L 344 217.5 L 344 215.5 Q 345.2 210.8 343 209.5 L 344 207.5 L 343 206.5 L 343 196.5 L 341 186.5 L 341 184.5 L 341 176.5 L 340 175.5 L 340 173.5 L 340 163.5 L 338 153.5 L 339 151.5 L 338 150.5 L 338 140.5 L 337 139.5 L 338 137.5 L 337 136.5 L 336 117.5 L 335 115.5 L 335 113.5 Q 336.7 107.3 334 105.5 L 335 103.5 L 334 102.5 L 333.5 83 Z " /><path fill="rgb(184,40,40)" stroke="rgb(184,40,40)" stroke-width="1" opacity="0.996078431372549" d="M 269.5 303 L 268.5 305 L 269.5 303 Z " /><path fill="rgb(184,40,40)" stroke="rgb(184,40,40)" stroke-width="1" opacity="0.996078431372549" d="M 114.5 333 L 113.5 335 L 114.5 333 Z " /><path fill="rgb(184,40,40)" stroke="rgb(184,40,40)" stroke-width="1" opacity="0.996078431372549" d="M 99.5 388 L 100.5 390 L 99.5 388 Z " /><path fill="rgb(184,40,40)" stroke="rgb(184,40,40)" stroke-width="1" opacity="0.996078431372549" d="M 113.5 403 L 116 404.5 L 114.5 404 L 113.5 403 Z " /><path fill="rgb(184,40,40)" stroke="rgb(184,40,40)" stroke-width="1" opacity="1" d="M 288.5 8 L 291.5 9 L 296.5 10 L 298.5 10 Q 304.7 10.3 307.5 14 L 308.5 13 L 311.5 16 L 320 23.5 L 326 33.5 L 326 35.5 L 328 41.5 L 328 51.5 L 330 61.5 L 330 63.5 L 330 72.5 L 331 73.5 L 331 75.5 L 333 111.5 L 335 121.5 L 335 123.5 L 335 131.5 L 336 132.5 L 335 134.5 L 336 135.5 L 337 157.5 L 338 158.5 L 338 168.5 L 339 169.5 L 339 171.5 Q 338 179 340 182 L 338 182.5 L 340 183 L 341 201.5 L 342 203.5 L 342 205.5 L 342 213.5 L 343 214.5 L 343 216.5 L 343 224.5 L 345 235 L 343 235.5 L 345 236 L 347 268.5 L 346.5 270 L 348 270.5 L 348 280.5 L 349 281.5 L 349 292.5 L 350 293.5 L 350 295.5 L 350 305.5 L 352 316.5 L 352 318.5 L 352 326.5 L 353 327.5 L 352 329.5 L 353 332.5 L 353 340.5 L 354 341.5 L 354 343.5 Q 352.7 350.3 355 353.5 L 355 355.5 L 356 379.5 L 350 395.5 L 337.5 408 L 321.5 414 L 319.5 414 L 293.5 414 L 293 412.5 L 292 412.5 Q 292.8 414.8 290.5 414 L 288.5 413 L 286.5 413 L 283.5 414 L 280.5 413 L 254.5 413 L 253.5 412 L 251.5 413 L 249.5 412 L 247.5 412 L 244.5 413 L 243.5 412 L 220.5 412 L 219.5 411 L 216.5 412 L 214.5 412 Q 212.3 412.8 213 410.5 L 212 410.5 L 211.5 412 L 208.5 411 L 206.5 411 L 184.5 411 L 183.5 410 Q 182.3 412.3 177.5 411 L 176.5 410 L 140.5 410 L 138.5 409 L 136.5 409 L 133.5 410 L 132.5 408 Q 131 410.5 125.5 409 L 112.5 403 L 105 396.5 L 97 383.5 L 95 374.5 L 95 372.5 L 95 364.5 L 96 363.5 L 96 361.5 L 97 358.5 L 97 356.5 L 98 354.5 L 98 352.5 L 99 348 Q 102 349.3 101 345.5 L 106 339 L 112.5 334 Q 114 336.5 115.5 333 L 120.5 330 L 122.5 330 L 128.5 328 L 160.5 328 L 162.5 328 L 164.5 329 L 167.5 328 L 168.5 329 L 199.5 329 L 200.5 330 L 202.5 329 L 204.5 330 L 206.5 329 L 208.5 329 L 210.5 330 L 212.5 330 L 247.5 330 L 248 331.5 L 249 331.5 Q 248.3 328.9 251 330 L 251.5 332 L 252 330 L 255.5 331 L 257.5 331 L 271 331 L 271 325.5 L 270 322.5 L 270 314.5 L 268 305.5 L 269.5 303 L 268 302.5 L 268 292.5 L 266 282.5 L 266 280.5 L 266 272.5 L 265 271.5 L 265 269.5 L 266 267.5 L 265 266.5 L 263 248.5 L 263 246.5 Q 264.8 240.3 262 238.5 L 263 236.5 L 261 226.5 L 261 224.5 L 261 216.5 L 260 215.5 L 260 213.5 L 259 197.5 L 258 196.5 L 259 194.5 L 258 193.5 L 258 183.5 L 256 173.5 L 257 171.5 L 256 168.5 L 256 158.5 L 254 147.5 L 254 145.5 Q 253.3 143.3 255.5 144 L 255.5 143 L 254 142.5 L 254 134.5 L 253 131.5 L 252 108.5 L 251 107.5 L 251 97.5 L 250 96.5 L 250 94.5 Q 251.3 87.7 249 84.5 L 249 82.5 L 249 71.5 L 248 70.5 L 248 68.5 Q 249.3 61.7 247 58.5 L 247 56.5 Q 245.3 42.8 249 34.5 L 253 26.5 L 260.5 18 L 272.5 11 L 288.5 8 Z " /><path fill="rgb(172,52,41)" stroke="rgb(172,52,41)" stroke-width="1" opacity="0.6313725490196078" d="M 282.5 7 Q 293.7 5.3 299.5 9 L 301.5 9 L 307.5 11 L 320 20.5 L 320 22.5 L 327 31.5 L 329 38.5 L 331 65.5 L 332 66.5 L 331 68.5 L 333 78.5 L 333 80.5 L 332.5 84 L 331 80.5 L 329 44.5 L 327 35.5 Q 322.8 24.2 314.5 17 L 302.5 10 L 294.5 8 L 282.5 8 L 268.5 12 L 256 21.5 L 250 30.5 L 247 39.5 L 247 43.5 L 245.5 45 L 245 43.5 L 249 32.5 Q 246.5 31 250 29.5 Q 254 20.5 261.5 15 L 273.5 9 L 282.5 7 Z " /><path fill="rgb(172,52,41)" stroke="rgb(172,52,41)" stroke-width="1" opacity="0.6313725490196078" d="M 245.5 46 L 247 52.5 L 248 71.5 L 247 71.5 L 246 55.5 L 245 54.5 L 246 52.5 Q 243.4 50.9 245.5 46 Z " /><path fill="rgb(172,52,41)" stroke="rgb(172,52,41)" stroke-width="1" opacity="0.6313725490196078" d="M 248.5 77 L 249 85.5 L 248 85.5 L 248.5 77 Z " /><path fill="rgb(172,52,41)" stroke="rgb(172,52,41)" stroke-width="1" opacity="0.6313725490196078" d="M 332.5 85 L 333 92.5 L 332 92.5 L 332.5 85 Z " /><path fill="rgb(172,52,41)" stroke="rgb(172,52,41)" stroke-width="1" opacity="0.6313725490196078" d="M 249.5 89 L 250 97.5 L 249 97.5 L 249.5 89 Z " /><path fill="rgb(172,52,41)" stroke="rgb(172,52,41)" stroke-width="1" opacity="0.6313725490196078" d="M 333.5 97 L 334 103.5 L 333 103.5 L 333.5 97 Z " /><path fill="rgb(172,52,41)" stroke="rgb(172,52,41)" stroke-width="1" opacity="0.6313725490196078" d="M 250.5 103 L 251 109.5 L 250 109.5 L 250.5 103 Z " /><path fill="rgb(172,52,41)" stroke="rgb(172,52,41)" stroke-width="1" opacity="0.6313725490196078" d="M 334.5 108 L 335 116.5 L 334 116.5 L 334.5 108 Z " /><path fill="rgb(172,52,41)" stroke="rgb(172,52,41)" stroke-width="1" opacity="0.6313725490196078" d="M 251.5 115 L 252 120.5 L 251 120.5 L 251.5 115 Z " /><path fill="rgb(172,52,41)" stroke="rgb(172,52,41)" stroke-width="1" opacity="0.6313725490196078" d="M 335.5 120 L 336 127.5 L 335 127.5 L 335.5 120 Z " /><path fill="rgb(172,52,41)" stroke="rgb(172,52,41)" stroke-width="1" opacity="0.6313725490196078" d="M 252.5 126 L 253 134.5 L 252 134.5 L 252.5 126 Z " /><path fill="rgb(172,52,41)" stroke="rgb(172,52,41)" stroke-width="1" opacity="0.6313725490196078" d="M 336.5 131 L 337 139.5 L 336 139.5 L 336.5 131 Z " /><path fill="rgb(172,52,41)" stroke="rgb(172,52,41)" stroke-width="1" opacity="0.6313725490196078" d="M 253.5 140 L 254 145.5 L 253 145.5 L 253.5 140 Z " /><path fill="rgb(172,52,41)" stroke="rgb(172,52,41)" stroke-width="1" opacity="0.6313725490196078" d="M 337.5 145 L 338 151.5 L 337 151.5 L 337.5 145 Z " /><path fill="rgb(172,52,41)" stroke="rgb(172,52,41)" stroke-width="1" opacity="0.6313725490196078" d="M 254.5 152 L 255 160.5 L 254 160.5 L 254.5 152 Z " /><path fill="rgb(172,52,41)" stroke="rgb(172,52,41)" stroke-width="1" opacity="0.6313725490196078" d="M 338.5 156 L 339 162.5 L 338 162.5 L 338.5 156 Z " /><path fill="rgb(172,52,41)" stroke="rgb(172,52,41)" stroke-width="1" opacity="0.6313725490196078" d="M 255.5 165 L 256 171.5 L 255 171.5 L 255.5 165 Z " /><path fill="rgb(172,52,41)" stroke="rgb(172,52,41)" stroke-width="1" opacity="0.6313725490196078" d="M 339.5 168 L 340 175.5 L 339 175.5 L 339.5 168 Z " /><path fill="rgb(172,52,41)" stroke="rgb(172,52,41)" stroke-width="1" opacity="0.6313725490196078" d="M 256.5 177 L 257 184.5 L 256 184.5 L 256.5 177 Z " /><path fill="rgb(172,52,41)" stroke="rgb(172,52,41)" stroke-width="1" opacity="0.6313725490196078" d="M 340.5 180 L 341 186.5 L 340 186.5 L 340.5 180 Z " /><path fill="rgb(172,52,41)" stroke="rgb(172,52,41)" stroke-width="1" opacity="0.6313725490196078" d="M 257.5 189 L 258 196.5 L 257 196.5 L 257.5 189 Z " /><path fill="rgb(172,52,41)" stroke="rgb(172,52,41)" stroke-width="1" opacity="0.6313725490196078" d="M 341.5 191 L 342 196.5 L 341 196.5 L 341.5 191 Z " /><path fill="rgb(172,52,41)" stroke="rgb(172,52,41)" stroke-width="1" opacity="0.6313725490196078" d="M 258.5 200 L 259 205.5 L 258 205.5 L 258.5 200 Z " /><path fill="rgb(172,52,41)" stroke="rgb(172,52,41)" stroke-width="1" opacity="0.6313725490196078" d="M 342.5 202 L 343 207.5 L 342 207.5 L 342.5 202 Z " /><path fill="rgb(172,52,41)" stroke="rgb(172,52,41)" stroke-width="1" opacity="0.6313725490196078" d="M 259.5 211 L 260 217.5 L 259 217.5 L 259.5 211 Z " /><path fill="rgb(172,52,41)" stroke="rgb(172,52,41)" stroke-width="1" opacity="0.6313725490196078" d="M 343.5 212 L 344 218.5 L 343 218.5 L 343.5 212 Z " /><path fill="rgb(172,52,41)" stroke="rgb(172,52,41)" stroke-width="1" opacity="0.6313725490196078" d="M 260.5 222 L 261 227.5 L 260 227.5 L 260.5 222 Z " /><path fill="rgb(172,52,41)" stroke="rgb(172,52,41)" stroke-width="1" opacity="0.6313725490196078" d="M 344.5 222 L 345 228.5 L 344 228.5 L 344.5 222 Z " /><path fill="rgb(172,52,41)" stroke="rgb(172,52,41)" stroke-width="1" opacity="0.6313725490196078" d="M 261.5 232 L 262 238.5 L 261 238.5 L 261.5 232 Z " /><path fill="rgb(172,52,41)" stroke="rgb(172,52,41)" stroke-width="1" opacity="0.6313725490196078" d="M 345.5 233 L 346 240.5 L 345 240.5 L 345.5 233 Z " /><path fill="rgb(172,52,41)" stroke="rgb(172,52,41)" stroke-width="1" opacity="0.6313725490196078" d="M 262.5 244 L 263 249.5 L 262 249.5 L 262.5 244 Z " /><path fill="rgb(172,52,41)" stroke="rgb(172,52,41)" stroke-width="1" opacity="0.6313725490196078" d="M 346.5 244 L 347 252.5 L 346 252.5 L 346.5 244 Z " /><path fill="rgb(172,52,41)" stroke="rgb(172,52,41)" stroke-width="1" opacity="0.6313725490196078" d="M 263.5 254 L 264 261.5 L 263 261.5 L 263.5 254 Z " /><path fill="rgb(172,52,41)" stroke="rgb(172,52,41)" stroke-width="1" opacity="0.6313725490196078" d="M 347.5 258 L 348 263.5 L 347 263.5 L 347.5 258 Z " /><path fill="rgb(172,52,41)" stroke="rgb(172,52,41)" stroke-width="1" opacity="0.6313725490196078" d="M 264.5 264 L 265 271.5 L 264 271.5 L 264.5 264 Z " /><path fill="rgb(172,52,41)" stroke="rgb(172,52,41)" stroke-width="1" opacity="0.6313725490196078" d="M 348.5 269 L 349 275.5 L 348 275.5 L 348.5 269 Z " /><path fill="rgb(172,52,41)" stroke="rgb(172,52,41)" stroke-width="1" opacity="0.6313725490196078" d="M 265.5 276 L 266 280.5 L 265 280.5 L 265.5 276 Z " /><path fill="rgb(172,52,41)" stroke="rgb(172,52,41)" stroke-width="1" opacity="0.6313725490196078" d="M 349.5 281 L 350 288.5 L 349 288.5 L 349.5 281 Z " /><path fill="rgb(172,52,41)" stroke="rgb(172,52,41)" stroke-width="1" opacity="0.6313725490196078" d="M 266.5 286 L 267 292.5 L 266 292.5 L 266.5 286 Z " /><path fill="rgb(172,52,41)" stroke="rgb(172,52,41)" stroke-width="1" opacity="0.6313725490196078" d="M 350.5 293 L 351 300.5 L 350 300.5 L 350.5 293 Z " /><path fill="rgb(172,52,41)" stroke="rgb(172,52,41)" stroke-width="1" opacity="0.6313725490196078" d="M 267.5 298 L 268 303.5 L 267 303.5 L 267.5 298 Z " /><path fill="rgb(172,52,41)" stroke="rgb(172,52,41)" stroke-width="1" opacity="0.6313725490196078" d="M 351.5 304 L 352 311.5 L 351 311.5 L 351.5 304 Z " /><path fill="rgb(172,52,41)" stroke="rgb(172,52,41)" stroke-width="1" opacity="0.6313725490196078" d="M 268.5 309 L 269 314.5 L 268 314.5 L 268.5 309 Z " /><path fill="rgb(172,52,41)" stroke="rgb(172,52,41)" stroke-width="1" opacity="0.6313725490196078" d="M 352.5 318 L 353 322.5 L 352 322.5 L 352.5 318 Z " /><path fill="rgb(172,52,41)" stroke="rgb(172,52,41)" stroke-width="1" opacity="0.6313725490196078" d="M 269.5 319 L 270 326.5 L 269 326.5 L 269.5 319 Z " /><path fill="rgb(172,52,41)" stroke="rgb(172,52,41)" stroke-width="1" opacity="0.6313725490196078" d="M 127.5 327 L 133 327.5 L 127.5 328 L 127.5 327 Z " /><path fill="rgb(172,52,41)" stroke="rgb(172,52,41)" stroke-width="1" opacity="0.6313725490196078" d="M 142.5 327 L 168 327.5 L 142.5 328 L 142.5 327 Z " /><path fill="rgb(172,52,41)" stroke="rgb(172,52,41)" stroke-width="1" opacity="0.6313725490196078" d="M 123.5 328 L 126 328.5 L 123.5 329 L 123.5 328 Z " /><path fill="rgb(172,52,41)" stroke="rgb(172,52,41)" stroke-width="1" opacity="0.6313725490196078" d="M 186.5 328 L 220 328.5 L 186.5 329 L 186.5 328 Z " /><path fill="rgb(172,52,41)" stroke="rgb(172,52,41)" stroke-width="1" opacity="0.6313725490196078" d="M 120.5 329 L 122 329.5 L 118.5 331 L 118.5 330 L 120.5 329 Z " /><path fill="rgb(172,52,41)" stroke="rgb(172,52,41)" stroke-width="1" opacity="0.6313725490196078" d="M 236.5 329 L 255 329.5 L 236.5 330 L 236.5 329 Z " /><path fill="rgb(172,52,41)" stroke="rgb(172,52,41)" stroke-width="1" opacity="0.6313725490196078" d="M 353.5 329 L 354 334.5 L 353 334.5 L 353.5 329 Z " /><path fill="rgb(172,52,41)" stroke="rgb(172,52,41)" stroke-width="1" opacity="0.6313725490196078" d="M 267.5 330 L 270 330.5 L 267.5 331 L 267.5 330 Z " /><path fill="rgb(172,52,41)" stroke="rgb(172,52,41)" stroke-width="1" opacity="0.6313725490196078" d="M 113.5 332 L 115 332.5 L 106.5 339 L 109.5 335 L 113.5 332 Z " /><path fill="rgb(172,52,41)" stroke="rgb(172,52,41)" stroke-width="1" opacity="0.6313725490196078" d="M 104.5 340 L 102 343.5 L 98.5 350 L 98 348.5 L 104.5 340 Z " /><path fill="rgb(172,52,41)" stroke="rgb(172,52,41)" stroke-width="1" opacity="0.6313725490196078" d="M 354.5 340 L 355 347.5 L 354 347.5 L 354.5 340 Z " /><path fill="rgb(172,52,41)" stroke="rgb(172,52,41)" stroke-width="1" opacity="0.6313725490196078" d="M 355.5 352 L 356 357.5 L 355 357.5 L 355.5 352 Z " /><path fill="rgb(172,52,41)" stroke="rgb(172,52,41)" stroke-width="1" opacity="0.6313725490196078" d="M 95.5 356 L 96 358.5 L 95 359.5 L 95 377.5 L 98 387.5 L 107.5 400 L 118.5 407 L 128 409 L 127.5 411 L 117.5 408 L 112.5 404 L 110.5 404 L 100 393.5 L 94 378.5 L 94 358.5 L 95.5 356 Z " /><path fill="rgb(172,52,41)" stroke="rgb(172,52,41)" stroke-width="1" opacity="0.6313725490196078" d="M 356.5 363 L 357 371.5 L 356 371.5 L 356.5 363 Z " /><path fill="rgb(172,52,41)" stroke="rgb(172,52,41)" stroke-width="1" opacity="0.6313725490196078" d="M 356.5 376 L 357 380.5 L 356 380.5 L 356.5 376 Z " /><path fill="rgb(172,52,41)" stroke="rgb(172,52,41)" stroke-width="1" opacity="0.6313725490196078" d="M 353.5 389 L 354 390.5 L 352 391.5 L 353.5 389 Z " /><path fill="rgb(172,52,41)" stroke="rgb(172,52,41)" stroke-width="1" opacity="0.6313725490196078" d="M 350.5 395 L 349 397.5 L 339.5 408 L 334.5 411 L 335.5 409 L 348 398.5 L 350.5 395 Z " /><path fill="rgb(172,52,41)" stroke="rgb(172,52,41)" stroke-width="1" opacity="0.6313725490196078" d="M 129.5 410 L 155 410.5 L 129.5 411 L 129.5 410 Z " /><path fill="rgb(172,52,41)" stroke="rgb(172,52,41)" stroke-width="1" opacity="0.6313725490196078" d="M 177.5 411 L 199 411.5 L 177.5 412 L 177.5 411 Z " /><path fill="rgb(172,52,41)" stroke="rgb(172,52,41)" stroke-width="1" opacity="0.6313725490196078" d="M 331.5 411 L 333 411.5 L 329.5 413 L 329.5 412 L 331.5 411 Z " /><path fill="rgb(172,52,41)" stroke="rgb(172,52,41)" stroke-width="1" opacity="0.6313725490196078" d="M 211.5 412 L 225 412.5 L 211.5 413 L 211.5 412 Z " /><path fill="rgb(172,52,41)" stroke="rgb(172,52,41)" stroke-width="1" opacity="0.6313725490196078" d="M 241.5 413 L 267 413.5 L 241.5 414 L 241.5 413 Z " /><path fill="rgb(172,52,41)" stroke="rgb(172,52,41)" stroke-width="1" opacity="0.6313725490196078" d="M 287.5 414 L 306 414.5 L 287.5 415 L 287.5 414 Z " /><path fill="rgb(172,52,41)" stroke="rgb(172,52,41)" stroke-width="1" opacity="0.6313725490196078" d="M 317.5 414 L 323 414.5 L 317.5 415 L 317.5 414 Z " /></svg>