<svg width="1024" height="300" version="1.1" xmlns="http://www.w3.org/2000/svg" desc="Created with imagetracer.js version 1.2.6" ><path fill="rgb(0,0,0)" stroke="rgb(0,0,0)" stroke-width="1" opacity="0" d="M 0 0 L 1023.5 0 L 1024 0.5 L 1024 300 L 0.5 300 L 0 299.5 L 0 0 Z M 75 76 L 60 80 L 45 89 Q 34 97 31 113 L 31 127 Q 33 136 38 142 Q 46 151 59 155 Q 75 160 94 163 L 108 169 L 114 178 Q 115 186 111 191 Q 105 198 95 200 L 80 200 L 72 198 L 64 193 L 59 188 L 55 178 L 30 178 L 28 180 L 29 192 L 35 204 L 48 215 L 58 220 L 74 224 L 99 224 L 109 222 Q 122 219 131 210 Q 133 211 132 208 L 134 208 L 142 195 L 144 188 L 144 171 L 139 160 Q 131 149 118 144 Q 100 138 80 135 L 67 129 Q 62 126 61 120 Q 61 110 65 106 Q 70 102 79 100 Q 96 98 105 105 L 109 110 L 115 122 L 139 122 L 141 120 L 141 114 L 138 104 L 129 90 Q 120 82 107 78 L 98 76 L 75 76 Z M 151 76 L 151 224 L 262 224 L 262 196 L 179 196 L 179 164 L 262 164 L 262 136 L 179 136 L 179 104 L 262 104 L 262 77 L 262 76 L 151 76 Z M 317 76 L 302 80 L 287 89 Q 276 98 273 114 Q 272 124 274 131 L 280 142 Q 288 151 301 155 Q 317 160 336 163 L 350 169 L 356 178 Q 357 186 353 191 Q 347 198 337 200 L 322 200 Q 312 198 306 193 L 301 188 L 297 178 L 272 178 L 270 180 L 271 192 L 277 204 L 292 216 L 306 222 L 316 224 L 341 224 Q 342 222 347 223 Q 363 220 374 210 Q 383 202 386 188 L 386 171 L 381 160 Q 373 149 360 144 Q 342 138 322 135 L 309 129 Q 304 126 303 120 L 305 110 Q 310 102 321 100 Q 338 98 347 105 L 351 110 L 357 122 L 381 122 L 383 120 L 383 114 L 380 104 L 371 90 Q 362 82 349 78 L 340 76 L 317 76 Z M 451 76 L 449 78 L 449 83 L 455 101 L 464 124 L 497 222 L 500 224 L 535 224 L 537 221 L 487 86 L 483 78 L 483 76 L 451 76 Z M 552 76 L 550 78 L 550 223 L 552 224 L 580 224 L 582 220 L 582 133 L 581 132 L 583 131 L 616 213 L 618 214 L 638 214 L 644 202 L 673 131 L 673 220 L 674 223 L 676 224 L 704 224 L 705 222 L 705 78 L 704 76 L 669 76 L 628 174 L 588 78 L 587 76 L 552 76 Z M 775 76 L 759 80 L 746 87 L 742 91 Q 739 90 740 93 L 735 96 L 724 115 L 721 123 L 718 138 L 718 163 L 720 174 Q 724 191 734 203 Q 747 220 774 224 L 797 224 L 807 222 Q 821 218 831 209 Q 842 199 848 184 L 853 163 L 853 137 Q 851 135 852 131 L 846 112 L 837 98 Q 827 86 813 80 L 797 76 L 775 76 Z M 869 76 L 866 77 L 866 222 L 869 224 L 937 224 L 958 218 L 971 210 Q 982 201 988 187 L 992 175 L 993 164 L 994 163 L 994 137 Q 992 135 993 130 Q 989 111 979 99 Q 966 82 943 77 Q 938 78 937 76 L 869 76 Z M 432 121 L 428 126 L 397 211 L 393 219 L 393 222 L 396 224 L 431 224 L 451 167 L 437 122 L 432 121 Z " /><path fill="rgb(0,0,0)" stroke="rgb(0,0,0)" stroke-width="1" opacity="0" d="M 897 101 L 929.5 101 Q 945.1 103.9 953 114.5 L 960 128.5 L 963 150.5 L 962 151.5 L 962 162.5 L 960 171.5 Q 955.7 184.2 946.5 192 Q 939.6 197.1 929.5 199 L 897 199 L 897 101 Z " /><path fill="rgb(0,0,0)" stroke="rgb(0,0,0)" stroke-width="1" opacity="0" d="M 779.5 103 Q 803.7 101.8 813 115.5 Q 819.6 123.4 822 135.5 L 823 156.5 L 820 171.5 Q 816.1 183.1 807.5 190 Q 798.3 198.3 779.5 197 Q 765 194.5 758 184.5 L 750 168.5 L 749 157.5 L 748 156.5 L 748 142.5 L 752 125.5 Q 756.4 115.4 764.5 109 Q 770.5 104.5 779.5 103 Z " /><path fill="rgb(255,255,255)" stroke="rgb(255,255,255)" stroke-width="1" opacity="0.45098039215686275" d="M 74.5 76 L 97.5 76 L 106.5 78 Q 120.1 82.3 129 90 L 138 103.5 L 141 113.5 L 141 119.5 L 138.5 122 L 114.5 122 L 109 109.5 L 104.5 105 Q 96.1 97.9 78.5 100 Q 69.9 101.6 65 106 Q 61 110.3 61 119.5 Q 61.9 126.1 66.5 129 L 79.5 135 Q 100.2 137.8 117.5 144 Q 131 149 139 159.5 L 144 170.5 L 144 187.5 L 142 194.5 L 134 208 L 132 208 Q 133.1 210.7 130.5 210 Q 122.1 218.6 108.5 222 L 98.5 224 L 73.5 224 L 57.5 220 Q 45 215.5 37.5 206 L 36 206.5 Q 38.5 205 35 203.5 L 29 191.5 L 28 179.5 L 29.5 178 L 54.5 178 L 59 187.5 L 63.5 193 L 71.5 198 L 79.5 200 L 94.5 200 L 105 195.5 L 104.5 194 L 106.5 195 L 111 189.5 L 110.5 188 L 112 188.5 L 111 186.5 L 113 186.5 L 114 177.5 L 107.5 169 L 93.5 163 Q 74.6 160.4 58.5 155 Q 45.9 150.6 38 141.5 Q 32.7 135.8 31 126.5 L 31 112.5 L 33 105.5 L 32.5 104 L 34 104.5 L 40 93.5 L 39 92.5 L 43.5 88 L 45.5 89 Q 49.2 87 47.5 85 L 49.5 86 L 50.5 83 L 52.5 84 L 59.5 80 L 74.5 76 Z M 77 77 L 63 80 L 48 88 Q 35 96 32 114 L 32 127 L 37 139 Q 44 147 55 152 L 74 158 L 95 162 L 109 168 L 115 178 Q 116 186 112 191 Q 107 199 96 201 Q 76 203 66 196 L 58 189 L 54 179 L 31 179 L 29 181 Q 30 198 39 207 Q 47 214 59 219 L 78 223 L 94 223 L 111 220 Q 122 216 131 209 L 137 202 L 143 185 L 143 174 L 138 161 Q 131 151 120 146 L 101 140 L 80 136 L 68 131 L 60 122 Q 59 113 62 109 Q 67 101 77 99 L 95 99 L 104 103 L 111 111 L 116 121 L 138 121 L 140 119 Q 139 103 131 95 Q 122 84 107 79 L 97 77 L 77 77 Z " /><path fill="rgb(255,255,255)" stroke="rgb(255,255,255)" stroke-width="1" opacity="0.45098039215686275" d="M 151 76 L 261.5 76 L 262 76.5 L 262 104 L 179 104 L 179 136 L 262 136 L 262 164 L 179 164 L 179 196 L 262 196 L 262 224 L 151 224 L 151 76 Z M 152 77 L 152 223 L 261 223 L 261 198 L 261 197 L 180 197 L 178 196 L 178 165 L 180 163 L 261 163 L 261 138 L 261 137 L 180 137 L 178 136 L 178 105 L 180 103 L 261 103 L 261 78 L 261 77 L 152 77 Z " /><path fill="rgb(255,255,255)" stroke="rgb(255,255,255)" stroke-width="1" opacity="0.45098039215686275" d="M 316.5 76 L 339.5 76 L 348.5 78 Q 362.1 82.3 371 90 L 380 103.5 L 383 113.5 L 383 119.5 L 380.5 122 L 356.5 122 L 351 109.5 L 346.5 105 Q 338.1 97.9 320.5 100 Q 309.6 101.6 305 109.5 L 303 119.5 Q 303.9 126.1 308.5 129 L 321.5 135 Q 342.2 137.8 359.5 144 L 373.5 152 L 375 151.5 L 374 152.5 L 379.5 158 L 381 157.5 L 381 159.5 L 386 170.5 L 386 187.5 Q 382.6 201.6 373.5 210 Q 363 219.5 346.5 223 Q 341.8 221.8 340.5 224 L 315.5 224 L 299.5 220 Q 286.9 215.5 279.5 206 L 278 206.5 Q 280.5 205 277 203.5 L 271 191.5 L 270 179.5 L 271.5 178 L 296.5 178 L 299 178.5 L 298 180.5 Q 300.3 188.3 305.5 193 Q 311.6 198.4 321.5 200 L 336.5 200 L 347 195.5 L 346.5 194 L 348.5 195 L 353 189.5 L 352.5 188 L 354 188.5 Q 356.9 184.9 356 177.5 L 349.5 169 L 335.5 163 Q 316.6 160.4 300.5 155 Q 287.9 150.6 280 141.5 L 274 130.5 Q 271.7 123.8 273 113.5 Q 276 97.5 286.5 89 L 290 86.5 L 289.5 85 L 291.5 86 L 292.5 83 L 294.5 84 L 301.5 80 L 316.5 76 Z M 319 77 L 300 82 L 290 88 Q 277 96 274 115 L 274 126 L 280 140 Q 286 148 297 152 L 312 157 L 337 162 L 351 168 Q 355 171 357 178 Q 358 186 355 190 Q 349 198 338 201 Q 316 204 307 195 L 300 189 L 296 179 L 273 179 L 271 181 Q 271 195 278 203 Q 286 214 301 219 L 320 223 L 336 223 L 353 220 Q 364 217 372 210 Q 382 201 385 185 L 384 169 L 377 157 Q 369 148 357 144 L 322 136 L 310 131 L 302 122 Q 301 112 305 108 L 313 101 L 325 98 L 326 99 L 337 99 L 349 105 L 353 111 L 358 121 L 380 121 L 382 119 Q 381 103 373 95 Q 364 84 349 79 L 339 77 L 319 77 Z " /><path fill="rgb(255,255,255)" stroke="rgb(255,255,255)" stroke-width="1" opacity="0.45098039215686275" d="M 774.5 76 L 796.5 76 L 812.5 80 Q 827.4 86.1 837 97.5 L 846 111.5 L 852 130.5 Q 850.8 135.3 853 136.5 L 853 162.5 L 848 183.5 Q 842 199 830.5 209 Q 820.6 217.6 806.5 222 L 796.5 224 L 773.5 224 L 751.5 217 L 740.5 209 L 739.5 210 L 734 204.5 L 734 202.5 L 723 183.5 L 721 175.5 L 722 175.5 Q 727.5 199 744.5 211 Q 753.3 217.7 765.5 221 L 776.5 222 L 777.5 223 L 793.5 223 L 808.5 220 L 821.5 214 L 836 201.5 Q 853.6 181.1 852 141.5 L 851 140.5 L 850 128.5 L 845 112.5 Q 838.3 98.3 826.5 89 Q 816.4 81.1 801.5 78 Q 796.7 79.3 795.5 77 L 775.5 77 L 759.5 81 L 747.5 87 L 734 99.5 Q 725.4 109.9 721.5 125 L 721 122.5 L 730 103.5 L 729.5 102 Q 730.8 104.3 732 101.5 L 733 99.5 L 732.5 98 Q 733.8 100.3 735 97.5 Q 734.3 95.3 736.5 96 L 740 91 L 743 89.5 L 742.5 88 Q 744 90.5 745.5 87 L 747 86.5 L 746.5 85 L 748.5 86 L 758.5 80 L 774.5 76 Z " /><path fill="rgb(255,255,255)" stroke="rgb(255,255,255)" stroke-width="1" opacity="0.45098039215686275" d="M 868.5 76 L 936.5 76 Q 937.8 78.3 942.5 77 Q 966.1 82.4 979 98.5 L 983 104.5 L 981 103.5 L 967.5 89 L 949.5 80 L 935.5 77 L 868 77 L 867 79.5 L 867 220.5 L 869.5 223 L 932.5 223 L 954.5 218 Q 967.4 212.9 976 203.5 Q 985.3 193.8 989.5 179 L 990 181.5 Q 983.8 199.3 970.5 210 L 957.5 218 L 936.5 224 L 868.5 224 L 866 221.5 L 866 77 L 868.5 76 Z " /><path fill="rgb(255,255,255)" stroke="rgb(255,255,255)" stroke-width="1" opacity="0.45098039215686275" d="M 897.5 99 L 898.5 100 L 931.5 100 Q 945.3 103.2 953 112.5 Q 966.3 127.7 964 158.5 L 960 175.5 L 950.5 190 Q 942.8 197.8 929.5 200 L 897.5 200 L 897.5 199 L 929.5 199 Q 944.3 196.3 952 186.5 L 960 171.5 L 962 162.5 Q 960.6 153.6 963 148.5 L 962 147.5 L 962 137.5 L 960 128.5 Q 956.3 116.3 947.5 109 Q 940.5 103 929.5 101 L 897 101 L 897.5 99 Z " /><path fill="rgb(255,255,255)" stroke="rgb(255,255,255)" stroke-width="1" opacity="0.45098039215686275" d="M 785.5 101 L 786.5 102 L 797.5 103 L 805.5 107 L 815 116.5 Q 819.9 121.6 821 130.5 L 820 130.5 Q 817.1 116.9 807.5 110 Q 798.3 101.7 779.5 103 Q 765 105.5 758 115.5 Q 751.4 123.4 749 135.5 L 748 156.5 L 749 157.5 L 750 168.5 L 753 176.5 Q 757.3 185.3 764.5 191 L 774.5 196 L 791.5 197 Q 805.5 194 813 184.5 L 819.5 172 L 820 173.5 Q 815.6 185.1 806.5 192 L 792.5 198 L 778.5 198 Q 765.3 195.2 758 186.5 Q 744 171 747 138.5 Q 750.2 119.2 762.5 109 L 773.5 103 L 784.5 102 L 785.5 101 Z " /><path fill="rgb(255,255,255)" stroke="rgb(255,255,255)" stroke-width="1" opacity="0.45098039215686275" d="M 983.5 106 Q 989.3 112.7 991 123.5 L 990 123.5 Q 988 112.7 983.5 106 Z " /><path fill="rgb(255,255,255)" stroke="rgb(255,255,255)" stroke-width="1" opacity="0.45098039215686275" d="M 991.5 125 L 992 127.5 L 991 127.5 L 991.5 125 Z " /><path fill="rgb(255,255,255)" stroke="rgb(255,255,255)" stroke-width="1" opacity="0.45098039215686275" d="M 720.5 126 L 721 129.5 L 720 129.5 L 720.5 126 Z " /><path fill="rgb(255,255,255)" stroke="rgb(255,255,255)" stroke-width="1" opacity="0.45098039215686275" d="M 992.5 129 L 993 132.5 L 992 132.5 L 992.5 129 Z " /><path fill="rgb(255,255,255)" stroke="rgb(255,255,255)" stroke-width="1" opacity="0.45098039215686275" d="M 719.5 131 L 720 135.5 L 719 135.5 L 719.5 131 Z " /><path fill="rgb(255,255,255)" stroke="rgb(255,255,255)" stroke-width="1" opacity="0.45098039215686275" d="M 821.5 132 L 822 134.5 L 821 134.5 L 821.5 132 Z " /><path fill="rgb(255,255,255)" stroke="rgb(255,255,255)" stroke-width="1" opacity="0.45098039215686275" d="M 822.5 136 L 823 142.5 L 822 142.5 L 822.5 136 Z " /><path fill="rgb(255,255,255)" stroke="rgb(255,255,255)" stroke-width="1" opacity="0.45098039215686275" d="M 993.5 136 L 994 146.5 L 993 146.5 L 993.5 136 Z " /><path fill="rgb(255,255,255)" stroke="rgb(255,255,255)" stroke-width="1" opacity="0.45098039215686275" d="M 718.5 137 L 719 162.5 L 718 162.5 L 718.5 137 Z " /><path fill="rgb(255,255,255)" stroke="rgb(255,255,255)" stroke-width="1" opacity="0.45098039215686275" d="M 823.5 145 L 824 153.5 L 823 153.5 L 823.5 145 Z " /><path fill="rgb(255,255,255)" stroke="rgb(255,255,255)" stroke-width="1" opacity="0.45098039215686275" d="M 993.5 152 L 994 162.5 L 993 162.5 L 993.5 152 Z " /><path fill="rgb(255,255,255)" stroke="rgb(255,255,255)" stroke-width="1" opacity="0.45098039215686275" d="M 822.5 157 L 823 162.5 L 822 162.5 L 822.5 157 Z " /><path fill="rgb(255,255,255)" stroke="rgb(255,255,255)" stroke-width="1" opacity="0.45098039215686275" d="M 821.5 164 L 822 167.5 L 820.5 171 L 820 168.5 L 821.5 164 Z " /><path fill="rgb(255,255,255)" stroke="rgb(255,255,255)" stroke-width="1" opacity="0.45098039215686275" d="M 719.5 165 L 720 168.5 L 719 168.5 L 719.5 165 Z " /><path fill="rgb(255,255,255)" stroke="rgb(255,255,255)" stroke-width="1" opacity="0.45098039215686275" d="M 992.5 166 L 993 169.5 L 992 169.5 L 992.5 166 Z " /><path fill="rgb(255,255,255)" stroke="rgb(255,255,255)" stroke-width="1" opacity="0.45098039215686275" d="M 720.5 170 L 721 173.5 L 720 173.5 L 720.5 170 Z " /><path fill="rgb(255,255,255)" stroke="rgb(255,255,255)" stroke-width="1" opacity="0.45098039215686275" d="M 991.5 171 L 992 174.5 L 990.5 178 L 990 175.5 L 991.5 171 Z " /><path fill="rgb(183,40,40)" stroke="rgb(183,40,40)" stroke-width="1" opacity="0.2980392156862745" d="M 450.5 76 L 482.5 76 L 483 77.5 L 487 85.5 L 537 220.5 L 534.5 224 L 499.5 224 L 497 221.5 L 464 123.5 L 455 100.5 L 449 82.5 L 449 77.5 L 450.5 76 Z M 452 77 L 450 79 L 450 83 L 463 118 L 489 197 L 497 219 L 501 223 L 534 223 L 535 222 L 533 212 L 483 79 L 482 77 L 452 77 Z " /><path fill="rgb(183,40,40)" stroke="rgb(183,40,40)" stroke-width="1" opacity="0.2980392156862745" d="M 551.5 76 L 586.5 76 L 588 77.5 L 628 174.5 L 626 175 L 585.5 77 L 551.5 77 L 551 77.5 L 551 221.5 L 552.5 223 L 578.5 223 L 580 221.5 L 580 130 L 584 131.5 L 583.5 133 L 583 131 L 581 131.5 L 582 132.5 L 582 219.5 L 579.5 224 L 551.5 224 L 550 222.5 L 550 77.5 L 551.5 76 Z " /><path fill="rgb(183,40,40)" stroke="rgb(183,40,40)" stroke-width="1" opacity="0.2980392156862745" d="M 668.5 76 L 703.5 76 L 705 77.5 L 705 221.5 L 704 224 L 675.5 224 L 674 222.5 L 674.5 221 L 676.5 223 L 702.5 223 L 704 221.5 L 704 78.5 L 702.5 77 L 669.5 77 L 667 78.5 L 668.5 76 Z " /><path fill="rgb(183,40,40)" stroke="rgb(183,40,40)" stroke-width="1" opacity="0.2980392156862745" d="M 666.5 80 L 667 81.5 L 662.5 91 L 662 89.5 L 666.5 80 Z " /><path fill="rgb(183,40,40)" stroke="rgb(183,40,40)" stroke-width="1" opacity="0.2980392156862745" d="M 661.5 92 L 662 93.5 L 660.5 96 L 660 94.5 L 661.5 92 Z " /><path fill="rgb(183,40,40)" stroke="rgb(183,40,40)" stroke-width="1" opacity="0.2980392156862745" d="M 659.5 97 L 660 98.5 L 657.5 103 L 657 101.5 L 659.5 97 Z " /><path fill="rgb(183,40,40)" stroke="rgb(183,40,40)" stroke-width="1" opacity="0.2980392156862745" d="M 656.5 104 L 657 105.5 L 655.5 108 L 655 106.5 L 656.5 104 Z " /><path fill="rgb(183,40,40)" stroke="rgb(183,40,40)" stroke-width="1" opacity="0.2980392156862745" d="M 654.5 109 L 655 110.5 L 650.5 120 L 650 118.5 L 654.5 109 Z " /><path fill="rgb(183,40,40)" stroke="rgb(183,40,40)" stroke-width="1" opacity="0.2980392156862745" d="M 431.5 121 L 437 122 L 451 166.5 L 431 224 L 395.5 224 L 393 221.5 L 393 218.5 L 397 210.5 L 428 125.5 L 431.5 121 Z M 432 122 L 428 129 L 394 221 L 397 223 L 430 223 L 434 214 L 450 167 L 436 124 Q 435 121 432 122 Z " /><path fill="rgb(183,40,40)" stroke="rgb(183,40,40)" stroke-width="1" opacity="0.2980392156862745" d="M 649.5 121 L 650 122.5 L 648.5 125 L 648 123.5 L 649.5 121 Z " /><path fill="rgb(183,40,40)" stroke="rgb(183,40,40)" stroke-width="1" opacity="0.2980392156862745" d="M 647.5 126 L 648 127.5 L 645.5 132 L 645 130.5 L 647.5 126 Z " /><path fill="rgb(183,40,40)" stroke="rgb(183,40,40)" stroke-width="1" opacity="0.2980392156862745" d="M 671 130 L 674 130.5 L 674 219.5 L 673 219.5 L 672.5 131 L 644 201.5 L 637.5 214 L 617.5 214 L 616 212.5 L 615 209.5 L 616 209.5 L 618.5 213 L 636.5 213 L 638 211.5 L 671 130 Z " /><path fill="rgb(183,40,40)" stroke="rgb(183,40,40)" stroke-width="1" opacity="0.2980392156862745" d="M 644.5 133 L 645 134.5 L 643.5 137 L 643 135.5 L 644.5 133 Z " /><path fill="rgb(183,40,40)" stroke="rgb(183,40,40)" stroke-width="1" opacity="0.2980392156862745" d="M 584.5 134 L 586 137.5 L 585 137.5 L 584.5 134 Z " /><path fill="rgb(183,40,40)" stroke="rgb(183,40,40)" stroke-width="1" opacity="0.2980392156862745" d="M 642.5 138 L 643 139.5 L 638.5 149 L 638 147.5 L 642.5 138 Z " /><path fill="rgb(183,40,40)" stroke="rgb(183,40,40)" stroke-width="1" opacity="0.2980392156862745" d="M 586.5 139 L 588 142.5 L 587 142.5 L 586.5 139 Z " /><path fill="rgb(183,40,40)" stroke="rgb(183,40,40)" stroke-width="1" opacity="0.2980392156862745" d="M 589.5 146 L 591 149.5 L 590 149.5 L 589.5 146 Z " /><path fill="rgb(183,40,40)" stroke="rgb(183,40,40)" stroke-width="1" opacity="0.2980392156862745" d="M 637.5 150 L 638 151.5 L 636.5 154 L 636 152.5 L 637.5 150 Z " /><path fill="rgb(183,40,40)" stroke="rgb(183,40,40)" stroke-width="1" opacity="0.2980392156862745" d="M 591.5 151 L 593 154.5 L 592 154.5 L 591.5 151 Z " /><path fill="rgb(183,40,40)" stroke="rgb(183,40,40)" stroke-width="1" opacity="0.2980392156862745" d="M 635.5 155 L 636 156.5 L 633.5 161 L 633 159.5 L 635.5 155 Z " /><path fill="rgb(183,40,40)" stroke="rgb(183,40,40)" stroke-width="1" opacity="0.2980392156862745" d="M 593.5 156 L 596 161.5 L 595 161.5 L 593.5 156 Z " /><path fill="rgb(183,40,40)" stroke="rgb(183,40,40)" stroke-width="1" opacity="0.2980392156862745" d="M 632.5 162 L 633 163.5 L 631.5 166 L 631 164.5 L 632.5 162 Z " /><path fill="rgb(183,40,40)" stroke="rgb(183,40,40)" stroke-width="1" opacity="0.2980392156862745" d="M 596.5 163 L 598 166.5 L 597 166.5 L 596.5 163 Z " /><path fill="rgb(183,40,40)" stroke="rgb(183,40,40)" stroke-width="1" opacity="0.2980392156862745" d="M 630.5 167 L 631 168.5 L 628.5 173 L 628 171.5 L 630.5 167 Z " /><path fill="rgb(183,40,40)" stroke="rgb(183,40,40)" stroke-width="1" opacity="0.2980392156862745" d="M 598.5 168 L 601 173.5 L 600 173.5 L 598.5 168 Z " /><path fill="rgb(183,40,40)" stroke="rgb(183,40,40)" stroke-width="1" opacity="0.2980392156862745" d="M 601.5 175 L 603 178.5 L 602 178.5 L 601.5 175 Z " /><path fill="rgb(183,40,40)" stroke="rgb(183,40,40)" stroke-width="1" opacity="0.2980392156862745" d="M 603.5 180 L 605 183.5 L 604 183.5 L 603.5 180 Z " /><path fill="rgb(183,40,40)" stroke="rgb(183,40,40)" stroke-width="1" opacity="0.2980392156862745" d="M 606.5 187 L 608 190.5 L 607 190.5 L 606.5 187 Z " /><path fill="rgb(183,40,40)" stroke="rgb(183,40,40)" stroke-width="1" opacity="0.2980392156862745" d="M 608.5 192 L 610 195.5 L 609 195.5 L 608.5 192 Z " /><path fill="rgb(183,40,40)" stroke="rgb(183,40,40)" stroke-width="1" opacity="0.2980392156862745" d="M 610.5 197 L 613 202.5 L 612 202.5 L 610.5 197 Z " /><path fill="rgb(183,40,40)" stroke="rgb(183,40,40)" stroke-width="1" opacity="0.2980392156862745" d="M 613.5 204 L 615 207.5 L 614 207.5 L 613.5 204 Z " /><path fill="rgb(184,40,40)" stroke="rgb(184,40,40)" stroke-width="1" opacity="0.996078431372549" d="M 451.5 77 L 481.5 77 L 483 78.5 L 533 211.5 L 535 221.5 L 533.5 223 L 500.5 223 L 497 218.5 L 489 196.5 L 463 117.5 L 450 82.5 L 450 78.5 L 451.5 77 Z " /><path fill="rgb(184,40,40)" stroke="rgb(184,40,40)" stroke-width="1" opacity="0.996078431372549" d="M 551 77 L 585.5 77 L 587 78.5 L 626 175 Q 628.7 176.1 628 173.5 L 667 79.5 L 669.5 77 L 702.5 77 L 704 78.5 L 704 221.5 L 702.5 223 L 676.5 223 L 674 220.5 L 674 130.5 L 671 130 L 643 200.5 L 636.5 213 L 618.5 213 L 616 210.5 L 582.5 130 L 580 130.5 L 580 221.5 L 578.5 223 L 552.5 223 L 551 221.5 L 551 77 Z " /><path fill="rgb(184,40,40)" stroke="rgb(184,40,40)" stroke-width="1" opacity="0.996078431372549" d="M 431.5 122 Q 435.3 121.3 436 123.5 L 450 166.5 L 434 213.5 L 429.5 223 L 396.5 223 L 394 220.5 L 428 128.5 L 431.5 122 Z " /><path fill="rgb(255,255,255)" stroke="rgb(255,255,255)" stroke-width="1" opacity="0.996078431372549" d="M 76.5 77 L 96.5 77 L 106.5 79 Q 121.8 83.7 131 94.5 Q 138.8 103.2 140 118.5 L 137.5 121 L 115.5 121 L 111 110.5 L 103.5 103 L 94.5 99 L 76.5 99 Q 66.5 101 62 108.5 Q 58.9 112.9 60 121.5 L 67.5 131 L 79.5 136 L 100.5 140 L 119.5 146 Q 131.1 150.9 138 160.5 L 143 173.5 L 143 184.5 L 137 201.5 L 130.5 209 Q 122.5 216.5 110.5 220 L 93.5 223 L 77.5 223 L 58.5 219 Q 47 214.5 39 206.5 Q 29.5 198 29 180.5 L 30.5 179 L 53.5 179 L 58 188.5 L 65.5 196 Q 75.6 203.4 95.5 201 Q 106.6 198.6 112 190.5 Q 115.9 186.4 115 177.5 L 108.5 168 L 94.5 162 L 73.5 158 L 54.5 152 Q 43.8 147.2 37 138.5 L 32 126.5 L 32 113.5 Q 35.4 96.4 47.5 88 L 62.5 80 L 76.5 77 Z " /><path fill="rgb(255,255,255)" stroke="rgb(255,255,255)" stroke-width="1" opacity="0.996078431372549" d="M 152 77 L 260.5 77 L 261 77.5 L 261 103 L 179.5 103 L 178 104.5 L 178 135.5 L 179.5 137 L 260.5 137 L 261 137.5 L 261 163 L 179.5 163 L 178 164.5 L 178 195.5 L 179.5 197 L 260.5 197 L 261 197.5 L 261 223 L 152 223 L 152 77 Z " /><path fill="rgb(255,255,255)" stroke="rgb(255,255,255)" stroke-width="1" opacity="0.996078431372549" d="M 318.5 77 L 338.5 77 L 348.5 79 Q 364 83.5 373 94.5 Q 380.8 103.2 382 118.5 L 379.5 121 L 357.5 121 L 353 110.5 L 348.5 105 L 336.5 99 L 325.5 99 L 324.5 98 L 312.5 101 L 305 107.5 Q 300.7 111.7 302 121.5 L 309.5 131 L 321.5 136 L 356.5 144 Q 368.9 148.1 377 156.5 L 384 168.5 L 385 184.5 Q 382.3 201.3 371.5 210 Q 363.8 216.8 352.5 220 L 335.5 223 L 319.5 223 L 300.5 219 Q 286.3 213.7 278 202.5 Q 271 195 271 180.5 L 272.5 179 L 295.5 179 L 300 188.5 L 306.5 195 Q 316.5 203.6 337.5 201 Q 349.4 198.4 355 189.5 Q 358 185.5 357 177.5 Q 355.5 171 350.5 168 L 336.5 162 L 311.5 157 L 296.5 152 Q 286.4 147.6 280 139.5 L 274 125.5 L 274 114.5 Q 277 96.5 289.5 88 L 299.5 82 L 318.5 77 Z " /><path fill="rgb(255,255,255)" stroke="rgb(255,255,255)" stroke-width="1" opacity="0.996078431372549" d="M 775.5 77 L 795.5 77 L 814.5 82 Q 828.4 88.1 837 99.5 Q 853.5 119.5 852 157.5 L 851 158.5 L 850 171.5 L 846 184.5 Q 839.9 199.4 828.5 209 Q 820.1 216.1 808.5 220 L 793.5 223 L 777.5 223 L 776.5 222 L 765.5 221 L 752.5 216 Q 740.1 209.4 732 198.5 Q 724.8 188.2 721 174.5 L 719 164.5 L 719 136.5 L 721 125.5 L 729 106.5 L 743.5 90 L 759.5 81 L 775.5 77 Z M 786 101 L 785 102 L 774 103 L 763 109 Q 750 119 747 139 Q 744 171 758 187 Q 765 195 779 198 L 793 198 L 807 192 L 818 179 L 822 168 L 823 155 L 824 154 L 823 137 L 820 126 L 815 117 L 806 107 L 798 103 L 787 102 L 786 101 Z " /><path fill="rgb(255,255,255)" stroke="rgb(255,255,255)" stroke-width="1" opacity="0.996078431372549" d="M 868 77 L 935.5 77 Q 936.8 79.3 941.5 78 Q 967.8 83.8 981 102.5 Q 987.6 111.9 991 124.5 L 993 133.5 L 994 151.5 L 993 152.5 L 993 165.5 L 989 181.5 Q 983.8 196.2 973.5 206 Q 960.9 218.4 939.5 222 Q 934 220.5 932.5 223 L 869.5 223 L 867 220.5 L 867 79.5 L 868 77 Z M 898 99 L 897 200 L 930 200 Q 943 198 951 190 L 960 176 L 964 159 Q 966 128 953 113 Q 945 103 932 100 L 899 100 L 898 99 Z " /></svg>