<svg width="1024" height="300" version="1.1" xmlns="http://www.w3.org/2000/svg" desc="Created with imagetracer.js version 1.2.6" ><path fill="rgb(52,131,49)" stroke="rgb(52,131,49)" stroke-width="1" opacity="1" d="M 347.5 107 L 346.5 109 L 347.5 107 Z " /><path fill="rgb(52,131,49)" stroke="rgb(52,131,49)" stroke-width="1" opacity="1" d="M 343.5 111 L 342.5 113 L 343.5 111 Z " /><path fill="rgb(52,131,49)" stroke="rgb(52,131,49)" stroke-width="1" opacity="1" d="M 361.5 119 L 360.5 121 L 361.5 119 Z " /><path fill="rgb(52,131,49)" stroke="rgb(52,131,49)" stroke-width="1" opacity="1" d="M 222.5 140 L 288 205.5 L 278.5 215 L 220.5 157 L 164.5 213 L 157 205.5 L 177 185.5 L 177 184 L 178.5 184 L 222.5 140 Z " /><path fill="rgb(52,131,49)" stroke="rgb(52,131,49)" stroke-width="1" opacity="1" d="M 563.5 165 L 564.5 167 L 563.5 165 Z " /><path fill="rgb(52,131,49)" stroke="rgb(52,131,49)" stroke-width="1" opacity="1" d="M 513.5 191 L 515.5 194 L 513.5 191 Z " /><path fill="rgb(24,24,24)" stroke="rgb(24,24,24)" stroke-width="1" opacity="1" d="M 0 0 L 1023.5 0 L 1024 0.5 L 1024 300 L 0.5 300 L 0 299.5 L 0 0 Z M 216 79 L 199 83 L 189 88 L 177 97 L 164 117 L 160 130 L 160 139 L 159 140 Q 160 169 177 184 L 177 186 L 157 206 L 165 213 L 221 157 L 279 215 L 288 206 L 266 184 Q 274 175 279 164 L 283 148 L 283 135 L 281 125 Q 278 111 270 103 Q 261 92 249 85 L 233 80 L 216 79 Z M 368 99 Q 356 101 348 107 Q 340 113 337 124 Q 335 138 341 145 Q 347 152 357 155 L 384 161 L 392 165 L 395 170 Q 396 176 394 180 Q 391 185 384 187 Q 369 189 362 184 Q 355 180 354 172 L 352 171 L 338 171 L 335 172 L 335 180 L 339 189 L 350 198 L 359 202 L 369 204 Q 391 206 404 197 Q 413 191 416 180 Q 418 164 412 158 L 400 148 L 368 140 L 362 137 L 358 133 Q 357 126 359 123 L 364 118 L 374 115 L 383 116 L 389 119 Q 393 123 395 130 L 396 131 L 414 131 Q 415 123 412 119 L 406 109 Q 399 103 389 100 L 384 99 L 368 99 Z M 422 99 L 422 204 L 500 204 L 500 184 L 442 184 L 442 161 L 500 161 L 500 141 L 442 141 L 442 119 L 500 119 L 500 100 L 500 99 L 422 99 Z M 540 99 Q 528 101 520 107 Q 510 113 508 127 L 509 138 L 512 144 Q 517 150 526 154 L 548 160 L 552 160 L 562 164 L 567 171 Q 568 178 565 181 Q 561 185 555 187 L 541 187 L 530 182 L 526 172 L 524 171 L 509 171 L 506 174 Q 507 185 513 192 L 523 199 L 534 203 Q 539 202 541 204 Q 564 205 577 196 Q 585 190 588 179 L 588 167 L 582 155 L 569 147 L 543 141 L 534 137 L 529 130 L 530 124 L 532 121 L 540 116 Q 544 117 546 115 L 555 116 L 562 120 L 568 131 L 585 131 L 586 130 Q 586 119 581 114 Q 575 105 564 101 L 556 99 L 540 99 Z M 636 99 L 633 102 L 668 203 L 671 204 L 692 204 L 694 203 L 692 193 L 663 118 L 658 102 L 656 99 L 636 99 Z M 705 99 L 705 203 L 707 204 L 725 204 L 727 202 L 728 138 L 751 195 L 754 197 L 767 197 L 769 194 L 791 140 Q 790 137 793 138 L 793 203 L 795 204 L 813 204 L 814 203 L 814 100 L 814 99 L 790 99 L 783 112 L 760 169 L 731 101 L 731 99 L 705 99 Z M 824 99 L 824 204 L 902 204 L 902 184 L 843 184 L 843 161 L 902 161 L 902 141 L 843 141 L 843 119 L 902 119 L 902 100 L 902 99 L 824 99 Z M 622 131 L 617 139 L 594 201 L 597 204 L 618 204 L 620 203 L 634 164 L 624 132 L 622 131 Z " /><path fill="rgb(119,115,113)" stroke="rgb(119,115,113)" stroke-width="1" opacity="1" d="M 369.5 99 L 383 99.5 L 369.5 100 L 369.5 99 Z " /><path fill="rgb(119,115,113)" stroke="rgb(119,115,113)" stroke-width="1" opacity="1" d="M 422.5 99 L 500 99.5 L 422.5 100 L 422.5 99 Z " /><path fill="rgb(119,115,113)" stroke="rgb(119,115,113)" stroke-width="1" opacity="1" d="M 540.5 99 L 554 99.5 L 540.5 100 L 540.5 99 Z " /><path fill="rgb(119,115,113)" stroke="rgb(119,115,113)" stroke-width="1" opacity="1" d="M 706.5 99 L 730 99.5 L 706.5 100 L 706.5 99 Z " /><path fill="rgb(119,115,113)" stroke="rgb(119,115,113)" stroke-width="1" opacity="1" d="M 789.5 99 L 813 99.5 L 789.5 100 L 788.5 101 L 789.5 99 Z " /><path fill="rgb(119,115,113)" stroke="rgb(119,115,113)" stroke-width="1" opacity="1" d="M 824.5 99 L 901.5 99 L 902 99.5 L 902 117.5 L 900.5 119 L 843.5 119 L 843.5 118 L 900.5 118 L 901 117.5 L 901 100 L 824.5 100 L 824.5 99 Z " /><path fill="rgb(119,115,113)" stroke="rgb(119,115,113)" stroke-width="1" opacity="1" d="M 519.5 107 L 514.5 113 L 519.5 107 Z " /><path fill="rgb(119,115,113)" stroke="rgb(119,115,113)" stroke-width="1" opacity="1" d="M 574.5 107 L 575.5 109 L 574.5 107 Z " /><path fill="rgb(119,115,113)" stroke="rgb(119,115,113)" stroke-width="1" opacity="1" d="M 345.5 109 L 344.5 111 L 345.5 109 Z " /><path fill="rgb(119,115,113)" stroke="rgb(119,115,113)" stroke-width="1" opacity="1" d="M 578.5 111 L 579.5 113 L 578.5 111 Z " /><path fill="rgb(119,115,113)" stroke="rgb(119,115,113)" stroke-width="1" opacity="1" d="M 441 118 L 499 118.5 L 442 119 L 442 141 L 498.5 141 L 498.5 142 L 441 142 L 441 118 Z " /><path fill="rgb(119,115,113)" stroke="rgb(119,115,113)" stroke-width="1" opacity="1" d="M 389.5 119 L 390.5 121 L 389.5 119 Z " /><path fill="rgb(119,115,113)" stroke="rgb(119,115,113)" stroke-width="1" opacity="1" d="M 357.5 126 L 358 130.5 L 357 130.5 L 357.5 126 Z " /><path fill="rgb(119,115,113)" stroke="rgb(119,115,113)" stroke-width="1" opacity="1" d="M 585.5 126 L 586 129.5 L 584 130.5 L 585.5 126 Z " /><path fill="rgb(119,115,113)" stroke="rgb(119,115,113)" stroke-width="1" opacity="1" d="M 508.5 127 L 509 131.5 L 508 131.5 L 508.5 127 Z " /><path fill="rgb(119,115,113)" stroke="rgb(119,115,113)" stroke-width="1" opacity="1" d="M 566.5 128 L 568 130.5 L 566 129.5 L 566.5 128 Z " /><path fill="rgb(119,115,113)" stroke="rgb(119,115,113)" stroke-width="1" opacity="1" d="M 726 137 L 729 138.5 L 727 138.5 L 726.5 202 L 726 137 Z " /><path fill="rgb(119,115,113)" stroke="rgb(119,115,113)" stroke-width="1" opacity="1" d="M 843.5 141 L 900.5 141 L 902 142.5 L 901.5 161 L 901 142 L 843.5 142 L 843.5 141 Z " /><path fill="rgb(119,115,113)" stroke="rgb(119,115,113)" stroke-width="1" opacity="1" d="M 512.5 143 L 513.5 145 L 512.5 143 Z " /><path fill="rgb(119,115,113)" stroke="rgb(119,115,113)" stroke-width="1" opacity="1" d="M 341.5 144 L 345.5 149 L 341.5 144 Z " /><path fill="rgb(119,115,113)" stroke="rgb(119,115,113)" stroke-width="1" opacity="1" d="M 408.5 154 L 410.5 157 L 408.5 154 Z " /><path fill="rgb(119,115,113)" stroke="rgb(119,115,113)" stroke-width="1" opacity="1" d="M 441.5 161 L 442 184 L 500 184.5 L 442.5 185 L 441 183.5 L 441.5 161 Z " /><path fill="rgb(119,115,113)" stroke="rgb(119,115,113)" stroke-width="1" opacity="1" d="M 587.5 167 L 588 169.5 L 587 169.5 L 587.5 167 Z " /><path fill="rgb(119,115,113)" stroke="rgb(119,115,113)" stroke-width="1" opacity="1" d="M 337.5 171 L 352 171.5 L 337.5 172 L 337.5 171 Z " /><path fill="rgb(119,115,113)" stroke="rgb(119,115,113)" stroke-width="1" opacity="1" d="M 509.5 171 L 523 171.5 L 509.5 172 L 509.5 171 Z " /><path fill="rgb(119,115,113)" stroke="rgb(119,115,113)" stroke-width="1" opacity="1" d="M 395.5 174 L 396 176.5 L 395 176.5 L 395.5 174 Z " /><path fill="rgb(119,115,113)" stroke="rgb(119,115,113)" stroke-width="1" opacity="1" d="M 587.5 175 L 588 177.5 L 587 177.5 L 587.5 175 Z " /><path fill="rgb(119,115,113)" stroke="rgb(119,115,113)" stroke-width="1" opacity="1" d="M 357.5 180 L 360.5 184 L 357.5 180 Z " /><path fill="rgb(119,115,113)" stroke="rgb(119,115,113)" stroke-width="1" opacity="1" d="M 392.5 181 L 390.5 184 L 392.5 181 Z " /><path fill="rgb(119,115,113)" stroke="rgb(119,115,113)" stroke-width="1" opacity="1" d="M 843.5 184 L 901.5 184 L 902 184.5 L 902 202.5 L 900.5 204 L 824.5 204 L 824.5 203 L 900.5 203 L 901 202.5 L 901 185 L 843.5 185 L 843.5 184 Z " /><path fill="rgb(119,115,113)" stroke="rgb(119,115,113)" stroke-width="1" opacity="1" d="M 372.5 187 L 381 187.5 L 372.5 188 L 372.5 187 Z " /><path fill="rgb(119,115,113)" stroke="rgb(119,115,113)" stroke-width="1" opacity="1" d="M 543.5 187 L 553 187.5 L 543.5 188 L 543.5 187 Z " /><path fill="rgb(119,115,113)" stroke="rgb(119,115,113)" stroke-width="1" opacity="1" d="M 340.5 189 L 341.5 191 L 340.5 189 Z " /><path fill="rgb(119,115,113)" stroke="rgb(119,115,113)" stroke-width="1" opacity="1" d="M 581.5 190 L 577.5 195 L 581.5 190 Z " /><path fill="rgb(119,115,113)" stroke="rgb(119,115,113)" stroke-width="1" opacity="1" d="M 345.5 194 L 346.5 196 L 345.5 194 Z " /><path fill="rgb(119,115,113)" stroke="rgb(119,115,113)" stroke-width="1" opacity="1" d="M 767.5 195 L 766.5 197 L 753 196.5 L 766.5 196 L 767.5 195 Z " /><path fill="rgb(119,115,113)" stroke="rgb(119,115,113)" stroke-width="1" opacity="1" d="M 369.5 203 L 381 203.5 L 369.5 204 L 369.5 203 Z " /><path fill="rgb(119,115,113)" stroke="rgb(119,115,113)" stroke-width="1" opacity="1" d="M 422.5 203 L 499 203.5 L 422.5 204 L 422.5 203 Z " /><path fill="rgb(119,115,113)" stroke="rgb(119,115,113)" stroke-width="1" opacity="1" d="M 541.5 203 L 553 203.5 L 541.5 204 L 541.5 203 Z " /><path fill="rgb(119,115,113)" stroke="rgb(119,115,113)" stroke-width="1" opacity="1" d="M 706.5 203 L 725 203.5 L 706.5 204 L 706.5 203 Z " /><path fill="rgb(119,115,113)" stroke="rgb(119,115,113)" stroke-width="1" opacity="1" d="M 794.5 203 L 813 203.5 L 794.5 204 L 794.5 203 Z " /><path fill="rgb(216,216,216)" stroke="rgb(216,216,216)" stroke-width="1" opacity="1" d="M 422.5 100 L 423 202.5 L 422 202.5 L 422.5 100 Z " /><path fill="rgb(216,216,216)" stroke="rgb(216,216,216)" stroke-width="1" opacity="1" d="M 499.5 100 L 500 117.5 L 499 117.5 L 499.5 100 Z " /><path fill="rgb(216,216,216)" stroke="rgb(216,216,216)" stroke-width="1" opacity="1" d="M 402.5 107 L 407.5 113 L 402.5 107 Z " /><path fill="rgb(216,216,216)" stroke="rgb(216,216,216)" stroke-width="1" opacity="1" d="M 576.5 109 L 577.5 111 L 576.5 109 Z " /><path fill="rgb(216,216,216)" stroke="rgb(216,216,216)" stroke-width="1" opacity="1" d="M 533.5 118 L 531.5 121 L 533.5 118 Z " /><path fill="rgb(216,216,216)" stroke="rgb(216,216,216)" stroke-width="1" opacity="1" d="M 561.5 119 L 563.5 122 L 561.5 119 Z " /><path fill="rgb(216,216,216)" stroke="rgb(216,216,216)" stroke-width="1" opacity="1" d="M 391.5 121 L 392.5 123 L 391.5 121 Z " /><path fill="rgb(216,216,216)" stroke="rgb(216,216,216)" stroke-width="1" opacity="1" d="M 413.5 127 L 414 129.5 L 412 130.5 L 413.5 127 Z " /><path fill="rgb(216,216,216)" stroke="rgb(216,216,216)" stroke-width="1" opacity="1" d="M 337.5 132 L 338 134.5 L 337 134.5 L 337.5 132 Z " /><path fill="rgb(216,216,216)" stroke="rgb(216,216,216)" stroke-width="1" opacity="1" d="M 530.5 134 L 533.5 138 L 530.5 134 Z " /><path fill="rgb(216,216,216)" stroke="rgb(216,216,216)" stroke-width="1" opacity="1" d="M 359.5 135 L 360.5 137 L 359.5 135 Z " /><path fill="rgb(216,216,216)" stroke="rgb(216,216,216)" stroke-width="1" opacity="1" d="M 499.5 142 L 500 160.5 L 499 160.5 L 499.5 142 Z " /><path fill="rgb(216,216,216)" stroke="rgb(216,216,216)" stroke-width="1" opacity="1" d="M 514.5 145 L 516.5 148 L 514.5 145 Z " /><path fill="rgb(216,216,216)" stroke="rgb(216,216,216)" stroke-width="1" opacity="1" d="M 578.5 153 L 583.5 159 L 578.5 153 Z " /><path fill="rgb(216,216,216)" stroke="rgb(216,216,216)" stroke-width="1" opacity="1" d="M 391.5 164 L 393.5 167 L 391.5 164 Z " /><path fill="rgb(216,216,216)" stroke="rgb(216,216,216)" stroke-width="1" opacity="1" d="M 564.5 165 L 565.5 167 L 564.5 165 Z " /><path fill="rgb(216,216,216)" stroke="rgb(216,216,216)" stroke-width="1" opacity="1" d="M 587.5 170 L 588 174.5 L 587 174.5 L 587.5 170 Z " /><path fill="rgb(216,216,216)" stroke="rgb(216,216,216)" stroke-width="1" opacity="1" d="M 524.5 172 L 525.5 174 L 524.5 172 Z " /><path fill="rgb(216,216,216)" stroke="rgb(216,216,216)" stroke-width="1" opacity="1" d="M 567.5 174 L 568 176.5 L 567 176.5 L 567.5 174 Z " /><path fill="rgb(216,216,216)" stroke="rgb(216,216,216)" stroke-width="1" opacity="1" d="M 394.5 179 L 393.5 181 L 394.5 179 Z " /><path fill="rgb(216,216,216)" stroke="rgb(216,216,216)" stroke-width="1" opacity="1" d="M 565.5 180 L 561.5 185 L 565.5 180 Z " /><path fill="rgb(216,216,216)" stroke="rgb(216,216,216)" stroke-width="1" opacity="1" d="M 529.5 181 L 530.5 183 L 529.5 181 Z " /><path fill="rgb(216,216,216)" stroke="rgb(216,216,216)" stroke-width="1" opacity="1" d="M 499.5 185 L 500 202.5 L 499 202.5 L 499.5 185 Z " /><path fill="rgb(216,216,216)" stroke="rgb(216,216,216)" stroke-width="1" opacity="1" d="M 512.5 189 L 517.5 195 L 512.5 189 Z " /><path fill="rgb(216,216,216)" stroke="rgb(216,216,216)" stroke-width="1" opacity="1" d="M 409.5 190 L 405.5 195 L 409.5 190 Z " /><path fill="rgb(216,216,216)" stroke="rgb(216,216,216)" stroke-width="1" opacity="1" d="M 342.5 191 L 344.5 194 L 342.5 191 Z " /><path fill="rgb(216,216,216)" stroke="rgb(216,216,216)" stroke-width="1" opacity="1" d="M 347.5 195 L 348.5 197 L 347.5 195 Z " /><path fill="rgb(216,216,216)" stroke="rgb(216,216,216)" stroke-width="1" opacity="1" d="M 575.5 195 L 574.5 197 L 575.5 195 Z " /><path fill="rgb(216,216,216)" stroke="rgb(216,216,216)" stroke-width="1" opacity="1" d="M 535.5 202 L 538 202.5 L 535.5 203 L 535.5 202 Z " /><path fill="rgb(255,255,255)" stroke="rgb(255,255,255)" stroke-width="1" opacity="1" d="M 366.5 100 Q 398 97 409 114.5 L 413 123.5 L 413 129.5 L 411.5 131 L 397.5 131 L 395 130 Q 394.6 121.6 388.5 118 L 382.5 115 L 368.5 115 Q 361.3 116.8 358 122.5 L 357 131.5 L 360.5 137 L 371.5 142 L 375.5 142 L 397.5 148 Q 406.5 151.5 412 158.5 L 415 164.5 L 416 175.5 Q 413.8 189.8 403.5 196 L 398.5 199 L 384.5 203 L 366.5 203 L 350.5 198 L 340 188.5 Q 335.4 183.1 335 173.5 L 336.5 172 L 352.5 172 L 356 179.5 L 361.5 185 L 370.5 188 L 382.5 188 Q 390.9 185.9 395 179.5 L 396 170.5 L 391.5 164 L 382.5 160 L 353.5 153 Q 345.8 149.8 341 143.5 L 338 137.5 L 337 127.5 Q 339 114.5 347.5 108 Q 354.9 101.9 366.5 100 Z " /><path fill="rgb(255,255,255)" stroke="rgb(255,255,255)" stroke-width="1" opacity="1" d="M 423 100 L 498.5 100 L 499 100.5 L 499 118 L 441 118 L 441 142 L 498.5 142 L 499 142.5 L 499 161 L 441 161 L 441 185 L 498.5 185 L 499 185.5 L 499 203 L 423 203 L 423 100 Z " /><path fill="rgb(255,255,255)" stroke="rgb(255,255,255)" stroke-width="1" opacity="1" d="M 537.5 100 Q 568.9 96.6 580 113.5 Q 584.8 119.2 585 129.5 L 583.5 131 L 568.5 131 L 561.5 119 Q 555.2 112.8 540.5 115 L 531 120.5 Q 527.7 124.2 529 132.5 L 533.5 138 L 539.5 141 L 555.5 144 L 571.5 149 L 585 160.5 L 587 165.5 L 587 179.5 Q 583.9 189.4 576.5 195 Q 563.5 205 538.5 203 L 522.5 198 L 511 187.5 Q 507 182.5 507 173.5 L 508.5 172 L 523.5 172 L 530.5 183 L 541.5 188 L 553.5 188 Q 562 186.5 566 180.5 Q 568.8 177.8 568 171.5 L 564.5 165 L 554.5 160 L 527.5 154 Q 517.8 150.2 512 142.5 L 509 134.5 L 509 125.5 Q 511.4 112.9 520.5 107 L 537.5 100 Z " /><path fill="rgb(255,255,255)" stroke="rgb(255,255,255)" stroke-width="1" opacity="1" d="M 706.5 100 L 729.5 100 L 731 101.5 L 759.5 170 L 789.5 100 L 813.5 100 L 814 100.5 L 814 203 L 794.5 203 L 793 201.5 L 793 137.5 L 791.5 137 L 789 140.5 L 767 196 L 753.5 196 L 752 194.5 L 729 137 L 726 137.5 L 726 203 L 706.5 203 L 705 201.5 L 705 101.5 L 706.5 100 Z " /><path fill="rgb(255,255,255)" stroke="rgb(255,255,255)" stroke-width="1" opacity="1" d="M 824 100 L 900.5 100 L 901 100.5 L 901 118 L 843 118 L 843 142 L 900.5 142 L 901 142.5 L 901 161 L 843 161 L 843 185 L 900.5 185 L 901 185.5 L 901 203 L 824 203 L 824 100 Z " /><path fill="rgb(182,39,39)" stroke="rgb(182,39,39)" stroke-width="1" opacity="1" d="M 215.5 79 L 232.5 80 L 248.5 85 Q 261.4 91.6 270 102.5 Q 277.5 111.5 281 124.5 L 283 134.5 L 283 147.5 L 279 163.5 Q 274.5 175 266.5 183 L 222.5 140 L 177.5 184 Q 160.2 169.8 159 139.5 L 160 138.5 L 160 129.5 L 164 116.5 L 177 97 L 188.5 88 L 198.5 83 L 215.5 79 Z " /><path fill="rgb(182,39,39)" stroke="rgb(182,39,39)" stroke-width="1" opacity="1" d="M 635.5 99 L 655.5 99 L 658 101.5 L 663 117.5 L 692 192.5 L 694 203 L 691.5 204 L 670.5 204 L 668 203 L 633 101.5 L 635.5 99 Z " /><path fill="rgb(182,39,39)" stroke="rgb(182,39,39)" stroke-width="1" opacity="1" d="M 621.5 131 L 624 132 L 634 163.5 L 619.5 203 L 617.5 204 L 596.5 204 L 594 200.5 L 617 138.5 L 621.5 131 Z " /></svg>