<svg width="256" height="256" version="1.1" xmlns="http://www.w3.org/2000/svg" desc="Created with imagetracer.js version 1.2.6" ><path fill="rgb(183,188,199)" stroke="rgb(183,188,199)" stroke-width="1" opacity="1" d="M 99.5 43 L 172 43.5 L 46 45 L 46 83 L 99 83 L 99 116.5 L 98 116.5 L 98 84 L 45 84 L 45 44 L 98.5 44 L 99.5 43 Z " /><path fill="rgb(183,188,199)" stroke="rgb(183,188,199)" stroke-width="1" opacity="1" d="M 176.5 44 L 180 44.5 L 176.5 45 L 176.5 44 Z " /><path fill="rgb(183,188,199)" stroke="rgb(183,188,199)" stroke-width="1" opacity="1" d="M 203.5 53 L 204.5 55 L 203.5 53 Z " /><path fill="rgb(183,188,199)" stroke="rgb(183,188,199)" stroke-width="1" opacity="1" d="M 207.5 56 L 208.5 58 L 207.5 56 Z " /><path fill="rgb(183,188,199)" stroke="rgb(183,188,199)" stroke-width="1" opacity="1" d="M 216.5 65 L 218.5 68 L 216.5 65 Z " /><path fill="rgb(183,188,199)" stroke="rgb(183,188,199)" stroke-width="1" opacity="1" d="M 219.5 69 L 220.5 71 L 219.5 69 Z " /><path fill="rgb(183,188,199)" stroke="rgb(183,188,199)" stroke-width="1" opacity="1" d="M 165.5 76 L 169 76.5 L 165.5 77 L 165.5 76 Z " /><path fill="rgb(183,188,199)" stroke="rgb(183,188,199)" stroke-width="1" opacity="1" d="M 179.5 80 L 180.5 82 L 179.5 80 Z " /><path fill="rgb(183,188,199)" stroke="rgb(183,188,199)" stroke-width="1" opacity="1" d="M 182.5 82 L 184.5 85 L 182.5 82 Z " /><path fill="rgb(183,188,199)" stroke="rgb(183,188,199)" stroke-width="1" opacity="1" d="M 186.5 87 L 187.5 89 L 186.5 87 Z " /><path fill="rgb(183,188,199)" stroke="rgb(183,188,199)" stroke-width="1" opacity="1" d="M 227.5 87 L 228 89.5 L 227 89.5 L 227.5 87 Z " /><path fill="rgb(183,188,199)" stroke="rgb(183,188,199)" stroke-width="1" opacity="1" d="M 228.5 93 L 229 96.5 L 228 96.5 L 228.5 93 Z " /><path fill="rgb(183,188,199)" stroke="rgb(183,188,199)" stroke-width="1" opacity="1" d="M 190.5 96 L 191 99.5 L 190 99.5 L 190.5 96 Z " /><path fill="rgb(183,188,199)" stroke="rgb(183,188,199)" stroke-width="1" opacity="1" d="M 190.5 107 L 191 109.5 L 190 109.5 L 190.5 107 Z " /><path fill="rgb(183,188,199)" stroke="rgb(183,188,199)" stroke-width="1" opacity="1" d="M 228.5 110 L 229 113.5 L 228 113.5 L 228.5 110 Z " /><path fill="rgb(183,188,199)" stroke="rgb(183,188,199)" stroke-width="1" opacity="1" d="M 74.5 117 L 75 142 L 99 142 L 99 171.5 L 97.5 173 L 46 173 L 46 211 L 136 211 L 136 192 L 153 192 L 153 211 L 166 211 L 166.5 193 L 167 210.5 L 165.5 212 L 153.5 212 L 152 210.5 L 152 193 L 137 193 L 137 210.5 L 135.5 212 L 45 212 L 45 172 L 98 172 L 98 143 L 75.5 143 L 74 141.5 L 74.5 117 Z " /><path fill="rgb(183,188,199)" stroke="rgb(183,188,199)" stroke-width="1" opacity="1" d="M 186.5 119 L 184.5 122 L 186.5 119 Z " /><path fill="rgb(183,188,199)" stroke="rgb(183,188,199)" stroke-width="1" opacity="1" d="M 182.5 123 L 181.5 125 L 182.5 123 Z " /><path fill="rgb(183,188,199)" stroke="rgb(183,188,199)" stroke-width="1" opacity="1" d="M 168.5 129 L 171 129.5 L 168.5 130 L 168.5 129 Z " /><path fill="rgb(183,188,199)" stroke="rgb(183,188,199)" stroke-width="1" opacity="1" d="M 136.5 130 L 163 130.5 L 136.5 131 L 136.5 130 Z " /><path fill="rgb(183,188,199)" stroke="rgb(183,188,199)" stroke-width="1" opacity="1" d="M 220.5 135 L 219.5 137 L 220.5 135 Z " /><path fill="rgb(183,188,199)" stroke="rgb(183,188,199)" stroke-width="1" opacity="1" d="M 218.5 138 L 217.5 140 L 218.5 138 Z " /><path fill="rgb(183,188,199)" stroke="rgb(183,188,199)" stroke-width="1" opacity="1" d="M 208.5 148 L 206.5 151 L 208.5 148 Z " /><path fill="rgb(183,188,199)" stroke="rgb(183,188,199)" stroke-width="1" opacity="1" d="M 176.5 161 L 179 161.5 L 176.5 162 L 176.5 161 Z " /><path fill="rgb(183,188,199)" stroke="rgb(183,188,199)" stroke-width="1" opacity="1" d="M 136 162 L 153 162 L 153 178.5 L 152 178.5 L 152 163 L 137 163 L 137 178 L 150.5 178 L 150.5 179 L 136 179 L 136 162 Z " /><path fill="rgb(183,188,199)" stroke="rgb(183,188,199)" stroke-width="1" opacity="1" d="M 167.5 162 L 172 162.5 L 167 163 L 166.5 179 L 166 163.5 L 167.5 162 Z " /><path fill="rgb(183,188,199)" stroke="rgb(183,188,199)" stroke-width="1" opacity="1" d="M 178.5 179 Q 185.3 177.3 187 180.5 L 186.5 184 L 186 180 L 178.5 180 L 178.5 179 Z " /><path fill="rgb(254,254,254)" stroke="rgb(254,254,254)" stroke-width="1" opacity="1" d="M 205.5 55 L 206.5 57 L 205.5 55 Z " /><path fill="rgb(254,254,254)" stroke="rgb(254,254,254)" stroke-width="1" opacity="1" d="M 209.5 58 L 215.5 65 L 209.5 58 Z " /><path fill="rgb(254,254,254)" stroke="rgb(254,254,254)" stroke-width="1" opacity="1" d="M 135.5 76 L 136 129.5 L 135 129.5 L 135.5 76 Z " /><path fill="rgb(254,254,254)" stroke="rgb(254,254,254)" stroke-width="1" opacity="1" d="M 185.5 85 L 186.5 87 L 185.5 85 Z " /><path fill="rgb(254,254,254)" stroke="rgb(254,254,254)" stroke-width="1" opacity="1" d="M 228.5 97 L 229 99.5 L 228 99.5 L 228.5 97 Z " /><path fill="rgb(254,254,254)" stroke="rgb(254,254,254)" stroke-width="1" opacity="1" d="M 184.5 122 L 183.5 124 L 184.5 122 Z " /><path fill="rgb(254,254,254)" stroke="rgb(254,254,254)" stroke-width="1" opacity="1" d="M 216.5 140 L 209.5 148 L 216.5 140 Z " /><path fill="rgb(254,254,254)" stroke="rgb(254,254,254)" stroke-width="1" opacity="1" d="M 174.5 179 L 178 179.5 L 174.5 180 L 174.5 179 Z " /><path fill="rgb(25,40,77)" stroke="rgb(25,40,77)" stroke-width="1" opacity="1" d="M 0 0 L 256 0 L 256 256 L 0 256 L 0 0 Z M 100 43 L 99 44 L 45 44 L 45 84 L 98 84 L 98 117 L 74 117 L 74 142 L 76 143 L 98 143 L 98 172 L 45 172 L 45 212 L 136 212 L 137 211 L 137 193 L 152 193 L 152 211 L 154 212 L 166 212 L 167 211 L 167 193 L 186 193 L 186 185 L 187 184 Q 188 180 186 179 L 167 179 L 167 163 L 188 160 L 207 151 Q 224 139 229 114 L 229 94 Q 227 92 228 88 Q 225 76 219 68 Q 206 49 180 44 Q 173 46 172 43 L 100 43 Z " /><path fill="rgb(25,40,77)" stroke="rgb(25,40,77)" stroke-width="1" opacity="1" d="M 136 76 L 164.5 76 Q 165.7 78.3 170.5 77 Q 180.6 79.4 186 86.5 L 190 94.5 L 191 106.5 L 189 114.5 L 184 123 L 175.5 128 L 167.5 130 L 136 130 L 136 76 Z " /><path fill="rgb(25,40,77)" stroke="rgb(25,40,77)" stroke-width="1" opacity="1" d="M 137 163 L 152 163 L 152 178.5 L 150.5 178 L 137 178 L 137 163 Z " /><path fill="rgb(255,255,255)" stroke="rgb(255,255,255)" stroke-width="1" opacity="1" d="M 99.5 44 L 174.5 44 Q 175.7 46.3 180.5 45 L 198.5 51 Q 210.1 57.5 218 67.5 L 227 86.5 L 229 107.5 L 228 108.5 L 227 119.5 L 222 132.5 L 206.5 150 L 188.5 159 L 174.5 162 L 166 162 L 166 179 L 173.5 179 L 174.5 180 L 186 180 L 186 193 L 166 193 L 166 211 L 153 211 L 153 192 L 136 192 L 136 211 L 104 211 L 103.5 209 L 103 211 L 46 211 L 46 173 L 99 173 L 99 142 L 75 142 L 75 117 L 99 117 L 99 83 L 46 83 L 46 45 L 98.5 45 L 99.5 44 Z M 135 76 L 135 130 L 137 131 L 165 131 Q 166 129 172 130 L 184 124 Q 189 119 191 111 Q 193 94 187 87 Q 181 78 170 76 L 135 76 Z M 136 162 L 136 179 L 153 179 L 153 162 L 136 162 Z " /></svg>