<svg width="1024" height="512" viewBox="0 0 1024 512" fill="none" xmlns="http://www.w3.org/2000/svg"><g clip-path="url(#clip0_3_2)"><path d="M211 319.28C208.12 319.28 205.773 318.587 203.96 317.2C202.253 315.813 200.867 313.627 199.8 310.64L166.36 216.08C165.187 212.667 165.4 209.787 167 207.44C168.707 205.093 171.533 203.92 175.48 203.92C178.36 203.92 180.6 204.613 182.2 206C183.8 207.28 185.08 209.36 186.04 212.24L214.84 297.68H208.44L238.52 212.4C239.587 209.52 240.92 207.387 242.52 206C244.12 204.613 246.2 203.92 248.76 203.92C251.32 203.92 253.347 204.613 254.84 206C256.333 207.387 257.613 209.573 258.68 212.56L287.8 297.68H282.2L311.48 212.24C312.44 209.467 313.72 207.387 315.32 206C316.92 204.613 319.107 203.92 321.88 203.92C325.293 203.92 327.8 205.093 329.4 207.44C331 209.787 331.213 212.667 330.04 216.08L296.28 310.8C295.213 313.68 293.827 315.813 292.12 317.2C290.413 318.587 288.12 319.28 285.24 319.28C282.36 319.28 280.067 318.587 278.36 317.2C276.653 315.813 275.267 313.627 274.2 310.64L246.36 231.28H250.04L221.88 310.8C220.813 313.68 219.427 315.813 217.72 317.2C216.12 318.587 213.88 319.28 211 319.28ZM348.546 319.28C345.24 319.28 342.68 318.427 340.866 316.72C339.16 314.907 338.306 312.347 338.306 309.04V248.56C338.306 245.253 339.16 242.747 340.866 241.04C342.573 239.333 344.973 238.48 348.066 238.48C351.16 238.48 353.56 239.333 355.266 241.04C356.973 242.747 357.826 245.253 357.826 248.56V258.64H356.226C357.72 252.24 360.653 247.387 365.026 244.08C369.4 240.773 375.213 238.8 382.466 238.16C384.706 237.947 386.466 238.533 387.746 239.92C389.133 241.2 389.933 243.227 390.146 246C390.36 248.667 389.72 250.853 388.226 252.56C386.84 254.16 384.706 255.12 381.826 255.44L378.306 255.76C371.8 256.4 366.893 258.427 363.586 261.84C360.28 265.147 358.626 269.84 358.626 275.92V309.04C358.626 312.347 357.773 314.907 356.066 316.72C354.36 318.427 351.853 319.28 348.546 319.28ZM456.56 319.28C453.253 319.28 450.693 318.373 448.88 316.56C447.173 314.64 446.32 312.027 446.32 308.72V215.6C446.32 212.187 447.227 209.627 449.04 207.92C450.853 206.107 453.413 205.2 456.72 205.2H495.28C507.653 205.2 517.2 208.293 523.92 214.48C530.64 220.667 534 229.307 534 240.4C534 251.493 530.64 260.187 523.92 266.48C517.2 272.667 507.653 275.76 495.28 275.76H466.8V308.72C466.8 312.027 465.947 314.64 464.24 316.56C462.533 318.373 459.973 319.28 456.56 319.28ZM466.8 259.6H492.08C499.333 259.6 504.827 258 508.56 254.8C512.293 251.493 514.16 246.693 514.16 240.4C514.16 234.107 512.293 229.36 508.56 226.16C504.827 222.96 499.333 221.36 492.08 221.36H466.8V259.6ZM618.933 319.6C610.079 319.6 603.413 317.093 598.933 312.08C594.453 306.96 592.213 299.493 592.213 289.68V214C592.213 210.693 593.066 208.187 594.773 206.48C596.479 204.773 598.933 203.92 602.133 203.92C605.333 203.92 607.786 204.773 609.493 206.48C611.306 208.187 612.213 210.693 612.213 214V288.72C612.213 293.627 613.226 297.253 615.253 299.6C617.386 301.947 620.373 303.12 624.213 303.12C625.066 303.12 625.866 303.12 626.613 303.12C627.359 303.013 628.106 302.907 628.852 302.8C630.346 302.587 631.359 303.013 631.893 304.08C632.426 305.04 632.693 307.067 632.693 310.16C632.693 312.827 632.159 314.907 631.093 316.4C630.026 317.893 628.266 318.8 625.813 319.12C624.746 319.227 623.626 319.333 622.453 319.44C621.279 319.547 620.106 319.6 618.933 319.6ZM682.666 319.28C679.36 319.28 676.8 318.373 674.986 316.56C673.28 314.64 672.426 312.027 672.426 308.72V222.32H641.226C638.453 222.32 636.266 221.573 634.666 220.08C633.173 218.48 632.426 216.347 632.426 213.68C632.426 210.907 633.173 208.827 634.666 207.44C636.266 205.947 638.453 205.2 641.226 205.2H724.106C726.88 205.2 729.013 205.947 730.506 207.44C732.106 208.827 732.906 210.907 732.906 213.68C732.906 216.347 732.106 218.48 730.506 220.08C729.013 221.573 726.88 222.32 724.106 222.32H692.906V308.72C692.906 312.027 692.053 314.64 690.346 316.56C688.64 318.373 686.08 319.28 682.666 319.28ZM740.421 319.28C737.115 319.28 734.555 318.427 732.741 316.72C731.035 314.907 730.181 312.347 730.181 309.04V248.56C730.181 245.253 731.035 242.747 732.741 241.04C734.448 239.333 736.848 238.48 739.941 238.48C743.035 238.48 745.435 239.333 747.141 241.04C748.848 242.747 749.701 245.253 749.701 248.56V258.64H748.101C749.595 252.24 752.528 247.387 756.901 244.08C761.275 240.773 767.088 238.8 774.341 238.16C776.581 237.947 778.341 238.533 779.621 239.92C781.008 241.2 781.808 243.227 782.021 246C782.235 248.667 781.595 250.853 780.101 252.56C778.715 254.16 776.581 255.12 773.701 255.44L770.181 255.76C763.675 256.4 758.768 258.427 755.461 261.84C752.155 265.147 750.501 269.84 750.501 275.92V309.04C750.501 312.347 749.648 314.907 747.941 316.72C746.235 318.427 743.728 319.28 740.421 319.28ZM817.816 319.6C812.163 319.6 807.096 318.533 802.616 316.4C798.243 314.16 794.776 311.173 792.216 307.44C789.763 303.707 788.536 299.493 788.536 294.8C788.536 289.04 790.03 284.507 793.016 281.2C796.003 277.787 800.856 275.333 807.576 273.84C814.296 272.347 823.31 271.6 834.616 271.6H842.616V283.12H834.776C828.163 283.12 822.883 283.44 818.936 284.08C814.99 284.72 812.163 285.84 810.456 287.44C808.856 288.933 808.056 291.067 808.056 293.84C808.056 297.36 809.283 300.24 811.736 302.48C814.19 304.72 817.603 305.84 821.976 305.84C825.496 305.84 828.59 305.04 831.256 303.44C834.03 301.733 836.216 299.44 837.816 296.56C839.416 293.68 840.216 290.373 840.216 286.64V268.24C840.216 262.907 839.043 259.067 836.696 256.72C834.35 254.373 830.403 253.2 824.856 253.2C821.763 253.2 818.403 253.573 814.776 254.32C811.256 255.067 807.523 256.347 803.576 258.16C801.55 259.12 799.736 259.387 798.136 258.96C796.643 258.533 795.47 257.68 794.616 256.4C793.763 255.013 793.336 253.52 793.336 251.92C793.336 250.32 793.763 248.773 794.616 247.28C795.47 245.68 796.91 244.507 798.936 243.76C803.843 241.733 808.536 240.293 813.016 239.44C817.603 238.587 821.763 238.16 825.496 238.16C833.176 238.16 839.47 239.333 844.376 241.68C849.39 244.027 853.123 247.6 855.576 252.4C858.03 257.093 859.256 263.173 859.256 270.64V309.04C859.256 312.347 858.456 314.907 856.856 316.72C855.256 318.427 852.963 319.28 849.976 319.28C846.99 319.28 844.643 318.427 842.936 316.72C841.336 314.907 840.536 312.347 840.536 309.04V301.36H841.816C841.07 305.093 839.576 308.347 837.336 311.12C835.203 313.787 832.483 315.867 829.176 317.36C825.87 318.853 822.083 319.6 817.816 319.6Z" fill="#1759A6"/><rect x="344" y="386" width="185" height="25" rx="12.5" transform="rotate(180 344 386)" fill="#1759A6"/><rect x="864" y="386" width="495" height="25" rx="12.5" transform="rotate(180 864 386)" fill="#1759A6"/><rect x="378" y="154" width="218" height="25" rx="12.5" transform="rotate(180 378 154)" fill="#1759A6"/><rect x="519" y="154" width="67" height="25" rx="12.5" transform="rotate(180 519 154)" fill="#1759A6"/><rect x="425" y="320" width="19" height="80" rx="9.5" transform="rotate(180 425 320)" fill="#1759A6"/><rect x="567" y="320" width="19" height="80" rx="9.5" transform="rotate(180 567 320)" fill="#1759A6"/><rect x="566" y="150" width="19" height="19" rx="9.5" transform="rotate(180 566 150)" fill="#1759A6"/><rect x="425" y="150" width="19" height="19" rx="9.5" transform="rotate(180 425 150)" fill="#1759A6"/><rect x="864" y="154" width="270" height="25" rx="12.5" transform="rotate(180 864 154)" fill="#1759A6"/></g><defs><clipPath id="clip0_3_2"><rect width="1024" height="512" fill="white"/></clipPath></defs></svg>